<svg width="21" height="25" viewBox="0 0 21 25" fill="none" xmlns="http://www.w3.org/2000/svg">
<g id="Group">
<g id="Group_2">
<path id="Vector" d="M20.393 24.6499H0.607091C0.271808 24.6499 0 24.4464 0 24.1954V5.21315L6.09139 0.652344H20.3929C20.7282 0.652344 21 0.855854 21 1.10689V24.1954C21.0001 24.4464 20.7283 24.6499 20.393 24.6499Z" fill="url(#paint0_linear_2345_9936)"/>
<path id="Vector_2" d="M0 15.5306L19.8714 0.652344H6.86756C6.37064 0.652344 5.89401 0.800172 5.54264 1.06326L0.548811 4.80223C0.197439 5.06532 0 5.42219 0 5.79424V15.5306Z" fill="url(#paint1_linear_2345_9936)"/>
<g id="Group_3">
<path id="Vector_3" d="M2.76386 17.0078H18.2067C18.4495 17.0078 18.6464 17.1552 18.6464 17.337C18.6464 17.5188 18.4495 17.6662 18.2067 17.6662H2.76386C2.52103 17.6662 2.32416 17.5188 2.32416 17.337C2.3241 17.1552 2.52097 17.0078 2.76386 17.0078Z" fill="url(#paint2_linear_2345_9936)"/>
<path id="Vector_4" d="M2.76386 19.2695H18.2067C18.4495 19.2695 18.6464 19.4169 18.6464 19.5987C18.6464 19.7806 18.4495 19.928 18.2067 19.928H2.76386C2.52103 19.928 2.32416 19.7806 2.32416 19.5987C2.3241 19.4169 2.52097 19.2695 2.76386 19.2695Z" fill="url(#paint3_linear_2345_9936)"/>
<path id="Vector_5" d="M2.76386 21.5391H18.2067C18.4495 21.5391 18.6464 21.6865 18.6464 21.8683C18.6464 22.0501 18.4495 22.1975 18.2067 22.1975H2.76386C2.52103 22.1975 2.32416 22.0501 2.32416 21.8683C2.3241 21.6865 2.52097 21.5391 2.76386 21.5391Z" fill="url(#paint4_linear_2345_9936)"/>
</g>
<path id="Vector_6" d="M5.84575 0.69748C2.99045 1.222 0.761025 2.89119 0.0603464 5.02904L0 5.21315V5.83268C0 5.49052 0.370465 5.21315 0.827443 5.21315H5.48429C5.81958 5.21315 6.09139 5.00964 6.09139 4.7586V1.27187C6.09139 0.929722 6.46185 0.652344 6.91883 0.652344H6.09139L5.84575 0.69748Z" fill="url(#paint5_linear_2345_9936)"/>
<path id="Vector_7" d="M0 19.4297V24.198C0 24.4491 0.271808 24.6526 0.607091 24.6526H20.3929C20.7282 24.6526 21 24.4491 21 24.198V19.4297H0Z" fill="url(#paint6_linear_2345_9936)"/>
<path id="Vector_8" d="M20.3877 0.652344H13.6985V24.6499H20.3876C20.7229 24.6499 20.9947 24.4464 20.9947 24.1954V1.10689C20.9948 0.855854 20.723 0.652344 20.3877 0.652344Z" fill="url(#paint7_linear_2345_9936)"/>
</g>
<g id="Group_4">
<g id="Group_5">
<path id="Vector_9" d="M15.6034 7.07288C15.5849 6.85985 15.446 6.68456 15.2611 6.64865C14.3518 6.47219 13.5733 5.85772 13.0981 5.00215C12.9871 4.80244 12.765 4.7274 12.5756 4.82325C11.9405 5.14473 11.2378 5.32359 10.4983 5.32359C9.67835 5.32359 8.90349 5.10376 8.21605 4.71329C8.02758 4.60624 7.78142 4.68709 7.67493 4.89435C7.24921 5.72278 6.54541 6.34245 5.70971 6.5865C5.54154 6.63562 5.4194 6.79995 5.40008 6.99685C5.37895 7.21232 5.36807 7.43134 5.36807 7.65322V9.79477C5.36807 11.8943 6.3747 13.8255 7.9913 14.8274L10.0359 16.0946C10.3243 16.2734 10.6722 16.2734 10.9606 16.0946L13.0052 14.8274C14.6218 13.8255 15.6284 11.8943 15.6284 9.79477V7.65322C15.6285 7.45735 15.62 7.26378 15.6034 7.07288Z" fill="url(#paint8_linear_2345_9936)"/>
<path id="Vector_10" d="M10.4895 15.527C10.4591 15.527 10.4281 15.5174 10.3975 15.4985L8.3529 14.2312C6.93999 13.3555 6.06235 11.6561 6.06235 9.79613V7.65458C6.06235 7.55583 6.06478 7.4566 6.06966 7.35756C6.07411 7.26706 6.13054 7.1871 6.21472 7.15359C6.93957 6.86487 7.57841 6.33631 8.03863 5.64708C8.10186 5.5524 8.22335 5.51669 8.32712 5.56337C9.01269 5.87197 9.73791 6.02804 10.4895 6.02804C11.1629 6.02804 11.8179 5.90164 12.4428 5.65168C12.543 5.6116 12.6568 5.64675 12.7187 5.73506C13.2332 6.46834 13.9456 6.99957 14.7489 7.24756C14.844 7.2769 14.9104 7.36281 14.9136 7.46227C14.9156 7.52649 14.9167 7.59065 14.9167 7.65453V9.79608C14.9167 11.6561 14.039 13.3555 12.6261 14.2311L10.5815 15.4984C10.5509 15.5174 10.5199 15.527 10.4895 15.527Z" fill="url(#paint9_linear_2345_9936)"/>
<path id="Vector_11" d="M15.2645 6.6461C14.3553 6.46963 13.5767 5.85516 13.1015 4.99959C12.9906 4.79993 12.7684 4.72484 12.5791 4.82069C11.944 5.14217 11.2412 5.32103 10.5017 5.32103C10.3162 5.32103 10.1332 5.30922 9.95276 5.28728V16.0384L10.0394 16.0921C10.3278 16.2709 10.6757 16.2709 10.9641 16.0921L13.0087 14.8249C14.6253 13.823 15.632 11.8918 15.632 9.79226V7.65072C15.632 7.45485 15.6234 7.26127 15.6069 7.07037C15.5883 6.85725 15.4495 6.68195 15.2645 6.6461Z" fill="url(#paint10_linear_2345_9936)"/>
<path id="Vector_12" d="M5.36807 9.12109V9.79513C5.36807 11.8946 6.3747 13.8258 7.99131 14.8278L10.036 16.095C10.3243 16.2737 10.6723 16.2737 10.9606 16.095L13.0053 14.8278C14.6219 13.8258 15.6285 11.8946 15.6285 9.79513V9.12109H5.36807Z" fill="url(#paint11_linear_2345_9936)"/>
<path id="Vector_13" d="M15.6285 9.12109V9.79513C15.6285 11.8946 14.6219 13.8258 13.0053 14.8278L10.9606 16.095C10.6723 16.2737 10.3243 16.2737 10.036 16.095L7.99131 14.8278C6.3747 13.8258 5.36807 11.8946 5.36807 9.79513V9.12109H15.6285Z" fill="url(#paint12_linear_2345_9936)"/>
<path id="Vector_14" d="M8.59987 13.8324C7.32378 13.0416 6.53107 11.4948 6.53107 9.79578V7.65423C6.53107 7.65381 6.53107 7.65339 6.53107 7.65297C6.53107 7.57845 6.57419 7.50997 6.64145 7.47791C7.25338 7.18586 7.79394 6.74537 8.228 6.18542C8.2805 6.11769 8.37152 6.09149 8.45157 6.122C9.10354 6.3706 9.78756 6.49635 10.4895 6.49635C11.1122 6.49635 11.7234 6.39647 12.3106 6.1991C12.3894 6.17262 12.4764 6.1961 12.5287 6.26064C13.015 6.86119 13.6372 7.32352 14.3237 7.59424C14.3988 7.62391 14.4479 7.6967 14.4479 7.7775V9.79578C14.4479 11.4948 13.6552 13.0416 12.3792 13.8324L10.5936 14.9391C10.5298 14.9786 10.4491 14.9786 10.3853 14.9391L8.59987 13.8324Z" fill="url(#paint13_linear_2345_9936)"/>
<path id="Vector_15" d="M10.3527 6.49472C9.6987 6.47944 9.06112 6.35439 8.45158 6.12201C8.37147 6.0915 8.2805 6.11765 8.228 6.18542C7.79394 6.74538 7.25338 7.18582 6.64145 7.47787C6.57419 7.50998 6.53111 7.57845 6.53107 7.65293V9.79574C6.53107 11.4948 7.32378 13.0416 8.59987 13.8324L10.3527 14.9188V6.49472Z" fill="url(#paint14_linear_2345_9936)"/>
<path id="Vector_16" d="M14.3237 7.59425C13.6372 7.32353 13.015 6.86125 12.5287 6.26065C12.4764 6.19611 12.3894 6.17263 12.3106 6.19911C11.7234 6.39653 11.1122 6.49636 10.4895 6.49636C9.78756 6.49636 9.10354 6.37056 8.45157 6.12201C8.37147 6.0915 8.2805 6.11765 8.228 6.18542C7.79394 6.74538 7.25338 7.18582 6.64145 7.47787C6.57419 7.50998 6.53111 7.57845 6.53107 7.65293V9.79574C6.53107 10.0163 6.54471 10.2342 6.57077 10.4483H14.4083C14.4343 10.2342 14.448 10.0163 14.448 9.79574V7.77746C14.4479 7.69671 14.3988 7.62387 14.3237 7.59425Z" fill="url(#paint15_linear_2345_9936)"/>
</g>
<path id="Vector_17" d="M15.6285 9.11914V9.79318C15.6285 11.8927 14.6219 13.8239 13.0053 14.8258L10.9606 16.0931C10.6723 16.2718 10.3243 16.2718 10.0359 16.0931L7.99128 14.8258C6.37467 13.8239 5.36804 11.8927 5.36804 9.79318V9.11914H15.6285Z" fill="url(#paint16_linear_2345_9936)"/>
</g>
<path id="Vector_18" d="M9.89333 8.39453L5.8093 12.4786L9.00538 15.6747L10.3703 14.8286C11.5861 14.0751 12.4567 12.796 12.8138 11.315L9.89333 8.39453Z" fill="url(#paint17_linear_2345_9936)"/>
<g id="Group_6">
<path id="Vector_19" d="M10.498 13.3406C12.0931 13.3406 13.3861 12.0475 13.3861 10.4525C13.3861 8.85748 12.0931 7.56445 10.498 7.56445C8.90301 7.56445 7.60999 8.85748 7.60999 10.4525C7.60999 12.0475 8.90301 13.3406 10.498 13.3406Z" fill="url(#paint18_linear_2345_9936)"/>
<path id="Vector_20" d="M11.9904 9.94033H11.0061V8.956C11.0061 8.81202 10.8894 8.69531 10.7454 8.69531H10.2465C10.1025 8.69531 9.9858 8.81202 9.9858 8.956V9.94033H9.00148C8.85749 9.94033 8.74078 10.057 8.74078 10.201V10.7C8.74078 10.8439 8.85749 10.9606 9.00148 10.9606H9.9858V11.945C9.9858 12.089 10.1025 12.2057 10.2465 12.2057H10.7454C10.8894 12.2057 11.0061 12.089 11.0061 11.945V10.9606H11.9904C12.1344 10.9606 12.2511 10.8439 12.2511 10.7V10.201C12.2511 10.0571 12.1344 9.94033 11.9904 9.94033Z" fill="url(#paint19_linear_2345_9936)"/>
<path id="Vector_21" d="M7.60999 10.4578C7.60999 12.0529 8.90299 13.3459 10.498 13.3459C12.0931 13.3459 13.3861 12.0529 13.3861 10.4578C13.3861 10.378 13.3827 10.2989 13.3763 10.2207H7.61973C7.61336 10.2989 7.60999 10.378 7.60999 10.4578Z" fill="url(#paint20_linear_2345_9936)"/>
<path id="Vector_22" d="M10.4977 7.56445C10.3116 7.56445 10.1298 7.58226 9.95355 7.61587V13.2891C10.1298 13.3227 10.3117 13.3406 10.4977 13.3406C12.0928 13.3406 13.3858 12.0475 13.3858 10.4525C13.3858 8.85746 12.0928 7.56445 10.4977 7.56445Z" fill="url(#paint21_linear_2345_9936)"/>
<path id="Vector_23" d="M12.532 8.40234L8.44794 12.4864C8.97148 13.0161 9.69834 13.3444 10.502 13.3444C12.097 13.3444 13.39 12.0514 13.39 10.4564C13.39 9.65275 13.0617 8.92588 12.532 8.40234Z" fill="url(#paint22_linear_2345_9936)"/>
</g>
</g>
<defs>
<linearGradient id="paint0_linear_2345_9936" x1="1.04811" y1="5.57419" x2="17.1828" y2="27.1236" gradientUnits="userSpaceOnUse">
<stop stop-color="#F3FAFF"/>
<stop offset="1" stop-color="#D5DAF3"/>
</linearGradient>
<linearGradient id="paint1_linear_2345_9936" x1="8.45715" y1="6.98442" x2="4.26531" y2="1.38581" gradientUnits="userSpaceOnUse">
<stop stop-color="#DBD5EF" stop-opacity="0"/>
<stop offset="0.2667" stop-color="#D8D2EC" stop-opacity="0.023"/>
<stop offset="0.4431" stop-color="#D1C9E2" stop-opacity="0.098"/>
<stop offset="0.5933" stop-color="#C4B9D1" stop-opacity="0.225"/>
<stop offset="0.7288" stop-color="#B2A4BA" stop-opacity="0.405"/>
<stop offset="0.8545" stop-color="#9A889C" stop-opacity="0.638"/>
<stop offset="0.9713" stop-color="#7E6678" stop-opacity="0.92"/>
<stop offset="1" stop-color="#765D6E"/>
</linearGradient>
<linearGradient id="paint2_linear_2345_9936" x1="10.4056" y1="8.53419" x2="10.462" y2="19.6477" gradientUnits="userSpaceOnUse">
<stop stop-color="#05E5B1" stop-opacity="0"/>
<stop offset="0.2667" stop-color="#D8D2EC" stop-opacity="0.023"/>
<stop offset="0.4431" stop-color="#D1C9E2" stop-opacity="0.098"/>
<stop offset="0.5933" stop-color="#C4B9D1" stop-opacity="0.225"/>
<stop offset="0.7288" stop-color="#B2A4BA" stop-opacity="0.405"/>
<stop offset="0.8545" stop-color="#9A889C" stop-opacity="0.638"/>
<stop offset="0.9713" stop-color="#7E6678" stop-opacity="0.92"/>
<stop offset="1" stop-color="#05E5B1"/>
</linearGradient>
<linearGradient id="paint3_linear_2345_9936" x1="10.4056" y1="10.7959" x2="10.462" y2="21.9094" gradientUnits="userSpaceOnUse">
<stop stop-color="#05E5B1" stop-opacity="0"/>
<stop offset="0.2667" stop-color="#D8D2EC" stop-opacity="0.023"/>
<stop offset="0.4431" stop-color="#D1C9E2" stop-opacity="0.098"/>
<stop offset="0.5933" stop-color="#C4B9D1" stop-opacity="0.225"/>
<stop offset="0.7288" stop-color="#B2A4BA" stop-opacity="0.405"/>
<stop offset="0.8545" stop-color="#9A889C" stop-opacity="0.638"/>
<stop offset="0.9713" stop-color="#7E6678" stop-opacity="0.92"/>
<stop offset="1" stop-color="#05E5B1"/>
</linearGradient>
<linearGradient id="paint4_linear_2345_9936" x1="10.4056" y1="13.0654" x2="10.462" y2="24.179" gradientUnits="userSpaceOnUse">
<stop stop-color="#DBD5EF" stop-opacity="0"/>
<stop offset="0.2667" stop-color="#D8D2EC" stop-opacity="0.023"/>
<stop offset="0.4431" stop-color="#D1C9E2" stop-opacity="0.098"/>
<stop offset="0.5933" stop-color="#C4B9D1" stop-opacity="0.225"/>
<stop offset="0.7288" stop-color="#B2A4BA" stop-opacity="0.405"/>
<stop offset="0.8545" stop-color="#9A889C" stop-opacity="0.638"/>
<stop offset="0.9713" stop-color="#7E6678" stop-opacity="0.92"/>
<stop offset="1" stop-color="#765D6E"/>
</linearGradient>
<linearGradient id="paint5_linear_2345_9936" x1="2.20426" y1="2.30279" x2="5.25206" y2="6.37341" gradientUnits="userSpaceOnUse">
<stop stop-color="#F3FAFF"/>
<stop offset="1" stop-color="#D5DAF3"/>
</linearGradient>
<linearGradient id="paint6_linear_2345_9936" x1="10.5" y1="23.065" x2="10.5" y2="24.7691" gradientUnits="userSpaceOnUse">
<stop stop-color="#DBD5EF" stop-opacity="0"/>
<stop offset="0.2667" stop-color="#D8D2EC" stop-opacity="0.023"/>
<stop offset="0.4431" stop-color="#D1C9E2" stop-opacity="0.098"/>
<stop offset="0.5933" stop-color="#C4B9D1" stop-opacity="0.225"/>
<stop offset="0.7288" stop-color="#B2A4BA" stop-opacity="0.405"/>
<stop offset="0.8545" stop-color="#9A889C" stop-opacity="0.638"/>
<stop offset="0.9713" stop-color="#7E6678" stop-opacity="0.92"/>
<stop offset="1" stop-color="#765D6E"/>
</linearGradient>
<linearGradient id="paint7_linear_2345_9936" x1="17.7817" y1="12.6511" x2="21.4346" y2="12.6511" gradientUnits="userSpaceOnUse">
<stop stop-color="#DBD5EF" stop-opacity="0"/>
<stop offset="0.2667" stop-color="#D8D2EC" stop-opacity="0.023"/>
<stop offset="0.4431" stop-color="#D1C9E2" stop-opacity="0.098"/>
<stop offset="0.5933" stop-color="#C4B9D1" stop-opacity="0.225"/>
<stop offset="0.7288" stop-color="#B2A4BA" stop-opacity="0.405"/>
<stop offset="0.8545" stop-color="#9A889C" stop-opacity="0.638"/>
<stop offset="0.9713" stop-color="#7E6678" stop-opacity="0.92"/>
<stop offset="1" stop-color="#765D6E"/>
</linearGradient>
<linearGradient id="paint8_linear_2345_9936" x1="7.28075" y1="6.85268" x2="14.147" y2="13.0173" gradientUnits="userSpaceOnUse">
<stop stop-color="#99E6FC"/>
<stop offset="0.1325" stop-color="#8EE1FB"/>
<stop offset="0.3627" stop-color="#71D5F9"/>
<stop offset="0.6631" stop-color="#43C2F5"/>
<stop offset="1" stop-color="#08A9F1"/>
</linearGradient>
<linearGradient id="paint9_linear_2345_9936" x1="13.5609" y1="12.8111" x2="5.19633" y2="4.44641" gradientUnits="userSpaceOnUse">
<stop stop-color="#99E6FC"/>
<stop offset="0.1325" stop-color="#8EE1FB"/>
<stop offset="0.3627" stop-color="#71D5F9"/>
<stop offset="0.6631" stop-color="#43C2F5"/>
<stop offset="1" stop-color="#08A9F1"/>
</linearGradient>
<linearGradient id="paint10_linear_2345_9936" x1="14.7642" y1="10.5027" x2="15.7675" y2="10.5027" gradientUnits="userSpaceOnUse">
<stop stop-color="#314DC9" stop-opacity="0"/>
<stop offset="0.1245" stop-color="#304CC8" stop-opacity="0.03"/>
<stop offset="0.2787" stop-color="#2F4BC6" stop-opacity="0.117"/>
<stop offset="0.4488" stop-color="#2E49C2" stop-opacity="0.26"/>
<stop offset="0.6301" stop-color="#2C47BD" stop-opacity="0.46"/>
<stop offset="0.8182" stop-color="#2943B7" stop-opacity="0.714"/>
<stop offset="1" stop-color="#2740B0"/>
</linearGradient>
<linearGradient id="paint11_linear_2345_9936" x1="12.3379" y1="13.3525" x2="13.2289" y2="14.8004" gradientUnits="userSpaceOnUse">
<stop stop-color="#314DC9" stop-opacity="0"/>
<stop offset="0.1245" stop-color="#304CC8" stop-opacity="0.03"/>
<stop offset="0.2787" stop-color="#2F4BC6" stop-opacity="0.117"/>
<stop offset="0.4488" stop-color="#2E49C2" stop-opacity="0.26"/>
<stop offset="0.6301" stop-color="#2C47BD" stop-opacity="0.46"/>
<stop offset="0.8182" stop-color="#2943B7" stop-opacity="0.714"/>
<stop offset="1" stop-color="#2740B0"/>
</linearGradient>
<linearGradient id="paint12_linear_2345_9936" x1="8.65874" y1="13.3525" x2="7.76773" y2="14.8004" gradientUnits="userSpaceOnUse">
<stop stop-color="#314DC9" stop-opacity="0"/>
<stop offset="0.1245" stop-color="#304CC8" stop-opacity="0.03"/>
<stop offset="0.2787" stop-color="#2F4BC6" stop-opacity="0.117"/>
<stop offset="0.4488" stop-color="#2E49C2" stop-opacity="0.26"/>
<stop offset="0.6301" stop-color="#2C47BD" stop-opacity="0.46"/>
<stop offset="0.8182" stop-color="#2943B7" stop-opacity="0.714"/>
<stop offset="1" stop-color="#2740B0"/>
</linearGradient>
<linearGradient id="paint13_linear_2345_9936" x1="4.35788" y1="3.67036" x2="15.1502" y2="14.4627" gradientUnits="userSpaceOnUse">
<stop stop-color="#314DC9" stop-opacity="0"/>
<stop offset="0.1245" stop-color="#304CC8" stop-opacity="0.03"/>
<stop offset="0.2787" stop-color="#2F4BC6" stop-opacity="0.117"/>
<stop offset="0.4488" stop-color="#2E49C2" stop-opacity="0.26"/>
<stop offset="0.6301" stop-color="#2C47BD" stop-opacity="0.46"/>
<stop offset="0.8182" stop-color="#2943B7" stop-opacity="0.714"/>
<stop offset="1" stop-color="#2740B0"/>
</linearGradient>
<linearGradient id="paint14_linear_2345_9936" x1="8.80451" y1="10.5141" x2="6.09391" y2="10.5141" gradientUnits="userSpaceOnUse">
<stop stop-color="#314DC9" stop-opacity="0"/>
<stop offset="0.1245" stop-color="#304CC8" stop-opacity="0.03"/>
<stop offset="0.2787" stop-color="#2F4BC6" stop-opacity="0.117"/>
<stop offset="0.4488" stop-color="#2E49C2" stop-opacity="0.26"/>
<stop offset="0.6301" stop-color="#2C47BD" stop-opacity="0.46"/>
<stop offset="0.8182" stop-color="#2943B7" stop-opacity="0.714"/>
<stop offset="1" stop-color="#2740B0"/>
</linearGradient>
<linearGradient id="paint15_linear_2345_9936" x1="10.4895" y1="8.29524" x2="10.4895" y2="5.98491" gradientUnits="userSpaceOnUse">
<stop stop-color="#314DC9" stop-opacity="0"/>
<stop offset="0.1245" stop-color="#304CC8" stop-opacity="0.03"/>
<stop offset="0.2787" stop-color="#2F4BC6" stop-opacity="0.117"/>
<stop offset="0.4488" stop-color="#2E49C2" stop-opacity="0.26"/>
<stop offset="0.6301" stop-color="#2C47BD" stop-opacity="0.46"/>
<stop offset="0.8182" stop-color="#2943B7" stop-opacity="0.714"/>
<stop offset="1" stop-color="#2740B0"/>
</linearGradient>
<linearGradient id="paint16_linear_2345_9936" x1="13.1931" y1="13.6376" x2="13.8613" y2="14.3727" gradientUnits="userSpaceOnUse">
<stop stop-color="#08A9F1" stop-opacity="0"/>
<stop offset="0.0927" stop-color="#0BAAF1" stop-opacity="0.025"/>
<stop offset="0.2192" stop-color="#15AEF2" stop-opacity="0.094"/>
<stop offset="0.3651" stop-color="#26B5F3" stop-opacity="0.208"/>
<stop offset="0.5256" stop-color="#3DBFF5" stop-opacity="0.367"/>
<stop offset="0.698" stop-color="#5ACBF7" stop-opacity="0.571"/>
<stop offset="0.8776" stop-color="#7EDAF9" stop-opacity="0.816"/>
<stop offset="1" stop-color="#99E6FC"/>
</linearGradient>
<linearGradient id="paint17_linear_2345_9936" x1="10.9144" y1="13.4996" x2="8.16354" y2="10.7488" gradientUnits="userSpaceOnUse">
<stop stop-color="#314DC9" stop-opacity="0"/>
<stop offset="0.1245" stop-color="#304CC8" stop-opacity="0.03"/>
<stop offset="0.2787" stop-color="#2F4BC6" stop-opacity="0.117"/>
<stop offset="0.4488" stop-color="#2E49C2" stop-opacity="0.26"/>
<stop offset="0.6301" stop-color="#2C47BD" stop-opacity="0.46"/>
<stop offset="0.8182" stop-color="#2943B7" stop-opacity="0.714"/>
<stop offset="1" stop-color="#2740B0"/>
</linearGradient>
<linearGradient id="paint18_linear_2345_9936" x1="8.93548" y1="8.8899" x2="12.1762" y2="12.1306" gradientUnits="userSpaceOnUse">
<stop stop-color="#F3FAFF"/>
<stop offset="1" stop-color="#D5DAF3"/>
</linearGradient>
<linearGradient id="paint19_linear_2345_9936" x1="9.83258" y1="9.81218" x2="11.1837" y2="11.1123" gradientUnits="userSpaceOnUse">
<stop stop-color="#FE646F"/>
<stop offset="0.235" stop-color="#FA5964"/>
<stop offset="0.6415" stop-color="#EF3D49"/>
<stop offset="1" stop-color="#E41F2D"/>
</linearGradient>
<linearGradient id="paint20_linear_2345_9936" x1="10.548" y1="10.841" x2="10.8922" y2="13.3648" gradientUnits="userSpaceOnUse">
<stop stop-color="#DBD5EF" stop-opacity="0"/>
<stop offset="0.2667" stop-color="#D8D2EC" stop-opacity="0.023"/>
<stop offset="0.4431" stop-color="#D1C9E2" stop-opacity="0.098"/>
<stop offset="0.5933" stop-color="#C4B9D1" stop-opacity="0.225"/>
<stop offset="0.7288" stop-color="#B2A4BA" stop-opacity="0.405"/>
<stop offset="0.8545" stop-color="#9A889C" stop-opacity="0.638"/>
<stop offset="0.9713" stop-color="#7E6678" stop-opacity="0.92"/>
<stop offset="1" stop-color="#765D6E"/>
</linearGradient>
<linearGradient id="paint21_linear_2345_9936" x1="10.56" y1="10.462" x2="13.3418" y2="10.8922" gradientUnits="userSpaceOnUse">
<stop stop-color="#DBD5EF" stop-opacity="0"/>
<stop offset="0.2667" stop-color="#D8D2EC" stop-opacity="0.023"/>
<stop offset="0.4431" stop-color="#D1C9E2" stop-opacity="0.098"/>
<stop offset="0.5933" stop-color="#C4B9D1" stop-opacity="0.225"/>
<stop offset="0.7288" stop-color="#B2A4BA" stop-opacity="0.405"/>
<stop offset="0.8545" stop-color="#9A889C" stop-opacity="0.638"/>
<stop offset="0.9713" stop-color="#7E6678" stop-opacity="0.92"/>
<stop offset="1" stop-color="#765D6E"/>
</linearGradient>
<linearGradient id="paint22_linear_2345_9936" x1="11.5" y1="11.4544" x2="12.9259" y2="12.8803" gradientUnits="userSpaceOnUse">
<stop stop-color="white" stop-opacity="0"/>
<stop offset="0.0925" stop-color="white" stop-opacity="0.024"/>
<stop offset="0.2178" stop-color="white" stop-opacity="0.092"/>
<stop offset="0.3619" stop-color="white" stop-opacity="0.203"/>
<stop offset="0.52" stop-color="white" stop-opacity="0.359"/>
<stop offset="0.6897" stop-color="white" stop-opacity="0.559"/>
<stop offset="0.8661" stop-color="white" stop-opacity="0.798"/>
<stop offset="1" stop-color="white"/>
</linearGradient>
</defs>
</svg>
