<svg width="24" height="25" viewBox="0 0 24 25" fill="none" xmlns="http://www.w3.org/2000/svg">
<g id="Group">
<path id="Vector" d="M3.36323 3.70508H20.6372C21.1739 3.70508 21.6097 4.14088 21.6097 4.67766V11.5225H2.39066V4.67761C2.39066 4.14083 2.82646 3.70508 3.36323 3.70508Z" fill="url(#paint0_linear_2349_10100)"/>
<path id="Vector_2" d="M6.32934 3.70508H3.36323C2.82608 3.70508 2.39066 4.14051 2.39066 4.67761V11.5225H6.32934V3.70508Z" fill="url(#paint1_linear_2349_10100)"/>
<path id="Vector_3" d="M20.6376 3.70508H17.3357V11.5225H21.6102V4.67761C21.6102 4.14051 21.1747 3.70508 20.6376 3.70508Z" fill="url(#paint2_linear_2349_10100)"/>
<path id="Vector_4" d="M20.6376 3.70508H17.3357V11.5225H21.6102V4.67761C21.6102 4.14051 21.1747 3.70508 20.6376 3.70508Z" fill="url(#paint3_linear_2349_10100)"/>
<path id="Vector_5" d="M17.3357 7.00977H21.6101V11.5223H17.3357V7.00977Z" fill="url(#paint4_linear_2349_10100)"/>
<g id="Group_2">
<path id="Vector_6" d="M18.7657 22.5733H5.23337C5.00405 22.5733 4.81815 22.3874 4.81815 22.1581V4.81847L8.98432 0.652344H18.7657C18.995 0.652344 19.181 0.838253 19.181 1.06757V22.1581C19.181 22.3874 18.995 22.5733 18.7657 22.5733Z" fill="url(#paint5_linear_2349_10100)"/>
<path id="Vector_7" d="M4.81821 14.2432L18.409 0.652344H9.51515C9.17526 0.652344 8.84933 0.787346 8.609 1.02768L5.19354 4.44314C4.95321 4.68347 4.81821 5.00944 4.81821 5.34929V14.2432Z" fill="url(#paint6_linear_2349_10100)"/>
<g id="Group_3">
<path id="Vector_8" d="M6.71772 5.41016H17.2797C17.4458 5.41016 17.5805 5.54478 17.5805 5.71091C17.5805 5.87699 17.4459 6.01167 17.2797 6.01167H6.71772C6.55164 6.01167 6.41696 5.87704 6.41696 5.71091C6.41701 5.54483 6.55164 5.41016 6.71772 5.41016Z" fill="url(#paint7_linear_2349_10100)"/>
<path id="Vector_9" d="M6.71772 7.47852H17.2797C17.4458 7.47852 17.5805 7.61314 17.5805 7.77927C17.5805 7.94535 17.4459 8.08002 17.2797 8.08002H6.71772C6.55164 8.08002 6.41696 7.9454 6.41696 7.77927C6.41701 7.61314 6.55164 7.47852 6.71772 7.47852Z" fill="url(#paint8_linear_2349_10100)"/>
<path id="Vector_10" d="M6.71772 9.54492H17.2797C17.4458 9.54492 17.5805 9.67955 17.5805 9.84568C17.5805 10.0118 17.4459 10.1464 17.2797 10.1464H6.71772C6.55164 10.1464 6.41696 10.0118 6.41696 9.84568C6.41701 9.67955 6.55164 9.54492 6.71772 9.54492Z" fill="url(#paint9_linear_2349_10100)"/>
</g>
<path id="Vector_11" d="M8.81633 0.693547C6.86344 1.17271 5.33867 2.69744 4.85946 4.65028L4.81821 4.81847V5.3844C4.81821 5.07188 5.07157 4.81847 5.38414 4.81847H8.56915C8.79847 4.81847 8.98438 4.63256 8.98438 4.40324V1.21827C8.98433 0.905707 9.23769 0.652344 9.55021 0.652344H8.98428L8.81633 0.693547Z" fill="url(#paint10_linear_2349_10100)"/>
<path id="Vector_12" d="M4.81815 17.8027V22.1585C4.81815 22.3878 5.00405 22.5737 5.23337 22.5737H18.7657C18.995 22.5737 19.1809 22.3878 19.1809 22.1585V17.8027H4.81815Z" fill="url(#paint11_linear_2349_10100)"/>
<path id="Vector_13" d="M18.765 0.652344H14.1899V22.5733H18.765C18.9943 22.5733 19.1802 22.3874 19.1802 22.1581V1.06757C19.1802 0.838253 18.9943 0.652344 18.765 0.652344Z" fill="url(#paint12_linear_2349_10100)"/>
</g>
<path id="Vector_14" d="M19.181 22.1603V6.01367H4.81815V22.1603C4.81815 22.3896 5.00405 22.5755 5.23337 22.5755H18.7657C18.995 22.5755 19.181 22.3896 19.181 22.1603Z" fill="url(#paint13_linear_2349_10100)"/>
<g id="Group_4">
<path id="Vector_15" d="M10.3133 11.2869H7.15524V8.12891L10.3133 11.2869Z" fill="url(#paint14_linear_2349_10100)"/>
<g id="Group_5">
<path id="Vector_16" d="M7.44697 9.22979L7.41575 8.73661C7.38327 8.22355 6.96289 7.82422 6.45522 7.82422H0.962751C0.369023 7.82422 -0.0831397 8.36329 0.0129086 8.95664L2.42185 23.8347C2.49812 24.3059 2.90022 24.6517 3.37169 24.6517H21.004C21.4755 24.6517 21.8776 24.3059 21.9539 23.8347L23.9875 11.2746C24.0835 10.6812 23.6314 10.1422 23.0376 10.1422H8.4075C7.89984 10.1422 7.47941 9.74289 7.44697 9.22979Z" fill="url(#paint15_linear_2349_10100)"/>
<path id="Vector_17" d="M23.0383 10.1406H10.8484V24.6502H21.0047C21.4762 24.6502 21.8782 24.3043 21.9545 23.8332L23.9881 11.273C24.0842 10.6797 23.6321 10.1406 23.0383 10.1406Z" fill="url(#paint16_linear_2349_10100)"/>
<path id="Vector_18" d="M1.31921 17.0254L2.42164 23.8344C2.4979 24.3055 2.9 24.6514 3.37148 24.6514H21.0038C21.4753 24.6514 21.8774 24.3055 21.9537 23.8344L23.0561 17.0254H1.31921Z" fill="url(#paint17_linear_2349_10100)"/>
<path id="Vector_19" d="M22.4319 20.8849L15.6231 14.0762L9.12238 20.5769L13.197 24.6516H21.0045C21.476 24.6516 21.878 24.3058 21.9543 23.8346L22.4319 20.8849Z" fill="url(#paint18_linear_2349_10100)"/>
<g id="Group_6">
<path id="Vector_20" d="M12.3919 21.9442C14.9308 21.9442 16.989 19.886 16.989 17.3471C16.989 14.8082 14.9308 12.75 12.3919 12.75C9.85296 12.75 7.79477 14.8082 7.79477 17.3471C7.79477 19.886 9.85296 21.9442 12.3919 21.9442Z" fill="url(#paint19_linear_2349_10100)"/>
<path id="Vector_21" d="M14.7704 16.5365H13.2036V14.9696C13.2036 14.7405 13.0179 14.5547 12.7887 14.5547H11.9945C11.7653 14.5547 11.5796 14.7405 11.5796 14.9696V16.5365H10.0128C9.78358 16.5365 9.59781 16.7223 9.59781 16.9514V17.7456C9.59781 17.9747 9.78358 18.1605 10.0128 18.1605H11.5796V19.7273C11.5796 19.9565 11.7653 20.1423 11.9945 20.1423H12.7887C13.0179 20.1423 13.2036 19.9565 13.2036 19.7273V18.1605H14.7704C14.9996 18.1605 15.1854 17.9747 15.1854 17.7456V16.9514C15.1854 16.7223 14.9996 16.5365 14.7704 16.5365Z" fill="url(#paint20_linear_2349_10100)"/>
<path id="Vector_22" d="M7.79477 17.3461C7.79477 19.885 9.85294 21.9432 12.3919 21.9432C14.9308 21.9432 16.989 19.8851 16.989 17.3461C16.989 17.2191 16.9836 17.0932 16.9735 16.9688H7.81028C7.80016 17.0932 7.79477 17.219 7.79477 17.3461Z" fill="url(#paint21_linear_2349_10100)"/>
<path id="Vector_23" d="M12.3926 12.75C12.0965 12.75 11.807 12.7784 11.5264 12.8318V21.8623C11.807 21.9158 12.0965 21.9442 12.3926 21.9442C14.9315 21.9442 16.9897 19.886 16.9897 17.3471C16.9897 14.8082 14.9315 12.75 12.3926 12.75Z" fill="url(#paint22_linear_2349_10100)"/>
<path id="Vector_24" d="M15.6231 14.0762L9.12238 20.5769C9.95573 21.4201 11.1127 21.9428 12.3919 21.9428C14.9308 21.9428 16.989 19.8846 16.989 17.3457C16.989 16.0665 16.4663 14.9095 15.6231 14.0762Z" fill="url(#paint23_linear_2349_10100)"/>
</g>
</g>
</g>
</g>
<defs>
<linearGradient id="paint0_linear_2349_10100" x1="12.0002" y1="3.79255" x2="12.0002" y2="12.3708" gradientUnits="userSpaceOnUse">
<stop stop-color="#E5CAF3"/>
<stop offset="0.1585" stop-color="#DDBFEE"/>
<stop offset="0.4338" stop-color="#CAA2E0"/>
<stop offset="0.7905" stop-color="#AC75CB"/>
<stop offset="1" stop-color="#9857BD"/>
</linearGradient>
<linearGradient id="paint1_linear_2349_10100" x1="4.36" y1="6.27696" x2="4.36" y2="9.60809" gradientUnits="userSpaceOnUse">
<stop stop-color="#814AA0" stop-opacity="0"/>
<stop offset="0.1758" stop-color="#7F499E" stop-opacity="0.038"/>
<stop offset="0.3644" stop-color="#7B4699" stop-opacity="0.149"/>
<stop offset="0.559" stop-color="#744291" stop-opacity="0.333"/>
<stop offset="0.7577" stop-color="#6A3C85" stop-opacity="0.592"/>
<stop offset="0.9577" stop-color="#5D3477" stop-opacity="0.922"/>
<stop offset="1" stop-color="#5B3374"/>
</linearGradient>
<linearGradient id="paint2_linear_2349_10100" x1="20.3445" y1="7.61381" x2="18.0457" y2="7.61381" gradientUnits="userSpaceOnUse">
<stop stop-color="#814AA0" stop-opacity="0"/>
<stop offset="0.1758" stop-color="#7F499E" stop-opacity="0.038"/>
<stop offset="0.3644" stop-color="#7B4699" stop-opacity="0.149"/>
<stop offset="0.559" stop-color="#744291" stop-opacity="0.333"/>
<stop offset="0.7577" stop-color="#6A3C85" stop-opacity="0.592"/>
<stop offset="0.9577" stop-color="#5D3477" stop-opacity="0.922"/>
<stop offset="1" stop-color="#5B3374"/>
</linearGradient>
<linearGradient id="paint3_linear_2349_10100" x1="20.5789" y1="7.61381" x2="22.4084" y2="7.61381" gradientUnits="userSpaceOnUse">
<stop stop-color="#814AA0" stop-opacity="0"/>
<stop offset="0.1758" stop-color="#7F499E" stop-opacity="0.038"/>
<stop offset="0.3644" stop-color="#7B4699" stop-opacity="0.149"/>
<stop offset="0.559" stop-color="#744291" stop-opacity="0.333"/>
<stop offset="0.7577" stop-color="#6A3C85" stop-opacity="0.592"/>
<stop offset="0.9577" stop-color="#5D3477" stop-opacity="0.922"/>
<stop offset="1" stop-color="#5B3374"/>
</linearGradient>
<linearGradient id="paint4_linear_2349_10100" x1="19.4729" y1="8.85493" x2="19.4729" y2="11.0114" gradientUnits="userSpaceOnUse">
<stop stop-color="#814AA0" stop-opacity="0"/>
<stop offset="0.1758" stop-color="#7F499E" stop-opacity="0.038"/>
<stop offset="0.3644" stop-color="#7B4699" stop-opacity="0.149"/>
<stop offset="0.559" stop-color="#744291" stop-opacity="0.333"/>
<stop offset="0.7577" stop-color="#6A3C85" stop-opacity="0.592"/>
<stop offset="0.9577" stop-color="#5D3477" stop-opacity="0.922"/>
<stop offset="1" stop-color="#5B3374"/>
</linearGradient>
<linearGradient id="paint5_linear_2349_10100" x1="5.53502" y1="5.14829" x2="20.8949" y2="20.5082" gradientUnits="userSpaceOnUse">
<stop stop-color="#F3FAFF"/>
<stop offset="1" stop-color="#D5DAF3"/>
</linearGradient>
<linearGradient id="paint6_linear_2349_10100" x1="10.6023" y1="6.43652" x2="6.61181" y2="2.44595" gradientUnits="userSpaceOnUse">
<stop stop-color="#DBD5EF" stop-opacity="0"/>
<stop offset="0.2667" stop-color="#D8D2EC" stop-opacity="0.023"/>
<stop offset="0.4431" stop-color="#D1C9E2" stop-opacity="0.098"/>
<stop offset="0.5933" stop-color="#C4B9D1" stop-opacity="0.225"/>
<stop offset="0.7288" stop-color="#B2A4BA" stop-opacity="0.405"/>
<stop offset="0.8545" stop-color="#9A889C" stop-opacity="0.638"/>
<stop offset="0.9713" stop-color="#7E6678" stop-opacity="0.92"/>
<stop offset="1" stop-color="#765D6E"/>
</linearGradient>
<linearGradient id="paint7_linear_2349_10100" x1="11.9442" y1="-2.33019" x2="12.013" y2="7.8214" gradientUnits="userSpaceOnUse">
<stop stop-color="#DBD5EF" stop-opacity="0"/>
<stop offset="0.2667" stop-color="#D8D2EC" stop-opacity="0.023"/>
<stop offset="0.4431" stop-color="#D1C9E2" stop-opacity="0.098"/>
<stop offset="0.5933" stop-color="#C4B9D1" stop-opacity="0.225"/>
<stop offset="0.7288" stop-color="#B2A4BA" stop-opacity="0.405"/>
<stop offset="0.8545" stop-color="#9A889C" stop-opacity="0.638"/>
<stop offset="0.9713" stop-color="#7E6678" stop-opacity="0.92"/>
<stop offset="1" stop-color="#765D6E"/>
</linearGradient>
<linearGradient id="paint8_linear_2349_10100" x1="11.9442" y1="-0.261881" x2="12.013" y2="9.88976" gradientUnits="userSpaceOnUse">
<stop stop-color="#DBD5EF" stop-opacity="0"/>
<stop offset="0.2667" stop-color="#D8D2EC" stop-opacity="0.023"/>
<stop offset="0.4431" stop-color="#D1C9E2" stop-opacity="0.098"/>
<stop offset="0.5933" stop-color="#C4B9D1" stop-opacity="0.225"/>
<stop offset="0.7288" stop-color="#B2A4BA" stop-opacity="0.405"/>
<stop offset="0.8545" stop-color="#9A889C" stop-opacity="0.638"/>
<stop offset="0.9713" stop-color="#7E6678" stop-opacity="0.92"/>
<stop offset="1" stop-color="#765D6E"/>
</linearGradient>
<linearGradient id="paint9_linear_2349_10100" x1="11.9442" y1="1.80453" x2="12.013" y2="11.9562" gradientUnits="userSpaceOnUse">
<stop stop-color="#DBD5EF" stop-opacity="0"/>
<stop offset="0.2667" stop-color="#D8D2EC" stop-opacity="0.023"/>
<stop offset="0.4431" stop-color="#D1C9E2" stop-opacity="0.098"/>
<stop offset="0.5933" stop-color="#C4B9D1" stop-opacity="0.225"/>
<stop offset="0.7288" stop-color="#B2A4BA" stop-opacity="0.405"/>
<stop offset="0.8545" stop-color="#9A889C" stop-opacity="0.638"/>
<stop offset="0.9713" stop-color="#7E6678" stop-opacity="0.92"/>
<stop offset="1" stop-color="#765D6E"/>
</linearGradient>
<linearGradient id="paint10_linear_2349_10100" x1="6.32582" y1="2.15996" x2="9.22724" y2="5.06142" gradientUnits="userSpaceOnUse">
<stop stop-color="#F3FAFF"/>
<stop offset="1" stop-color="#D5DAF3"/>
</linearGradient>
<linearGradient id="paint11_linear_2349_10100" x1="11.9995" y1="21.1235" x2="11.9995" y2="22.6801" gradientUnits="userSpaceOnUse">
<stop stop-color="#DBD5EF" stop-opacity="0"/>
<stop offset="0.2667" stop-color="#D8D2EC" stop-opacity="0.023"/>
<stop offset="0.4431" stop-color="#D1C9E2" stop-opacity="0.098"/>
<stop offset="0.5933" stop-color="#C4B9D1" stop-opacity="0.225"/>
<stop offset="0.7288" stop-color="#B2A4BA" stop-opacity="0.405"/>
<stop offset="0.8545" stop-color="#9A889C" stop-opacity="0.638"/>
<stop offset="0.9713" stop-color="#7E6678" stop-opacity="0.92"/>
<stop offset="1" stop-color="#765D6E"/>
</linearGradient>
<linearGradient id="paint12_linear_2349_10100" x1="16.9827" y1="11.6128" x2="19.481" y2="11.6128" gradientUnits="userSpaceOnUse">
<stop stop-color="#DBD5EF" stop-opacity="0"/>
<stop offset="0.2667" stop-color="#D8D2EC" stop-opacity="0.023"/>
<stop offset="0.4431" stop-color="#D1C9E2" stop-opacity="0.098"/>
<stop offset="0.5933" stop-color="#C4B9D1" stop-opacity="0.225"/>
<stop offset="0.7288" stop-color="#B2A4BA" stop-opacity="0.405"/>
<stop offset="0.8545" stop-color="#9A889C" stop-opacity="0.638"/>
<stop offset="0.9713" stop-color="#7E6678" stop-opacity="0.92"/>
<stop offset="1" stop-color="#765D6E"/>
</linearGradient>
<linearGradient id="paint13_linear_2349_10100" x1="11.9995" y1="7.57651" x2="11.9995" y2="10.5453" gradientUnits="userSpaceOnUse">
<stop stop-color="#DBD5EF" stop-opacity="0"/>
<stop offset="0.2667" stop-color="#D8D2EC" stop-opacity="0.023"/>
<stop offset="0.4431" stop-color="#D1C9E2" stop-opacity="0.098"/>
<stop offset="0.5933" stop-color="#C4B9D1" stop-opacity="0.225"/>
<stop offset="0.7288" stop-color="#B2A4BA" stop-opacity="0.405"/>
<stop offset="0.8545" stop-color="#9A889C" stop-opacity="0.638"/>
<stop offset="0.9713" stop-color="#7E6678" stop-opacity="0.92"/>
<stop offset="1" stop-color="#765D6E"/>
</linearGradient>
<linearGradient id="paint14_linear_2349_10100" x1="10.6024" y1="8.85623" x2="7.19392" y2="10.4101" gradientUnits="userSpaceOnUse">
<stop stop-color="#DBD5EF" stop-opacity="0"/>
<stop offset="0.2667" stop-color="#D8D2EC" stop-opacity="0.023"/>
<stop offset="0.4431" stop-color="#D1C9E2" stop-opacity="0.098"/>
<stop offset="0.5933" stop-color="#C4B9D1" stop-opacity="0.225"/>
<stop offset="0.7288" stop-color="#B2A4BA" stop-opacity="0.405"/>
<stop offset="0.8545" stop-color="#9A889C" stop-opacity="0.638"/>
<stop offset="0.9713" stop-color="#7E6678" stop-opacity="0.92"/>
<stop offset="1" stop-color="#765D6E"/>
</linearGradient>
<linearGradient id="paint15_linear_2349_10100" x1="8.84373" y1="7.31716" x2="16.2599" y2="24.4584" gradientUnits="userSpaceOnUse">
<stop stop-color="#E5CAF3"/>
<stop offset="0.1585" stop-color="#DDBFEE"/>
<stop offset="0.4338" stop-color="#CAA2E0"/>
<stop offset="0.7905" stop-color="#AC75CB"/>
<stop offset="1" stop-color="#9857BD"/>
</linearGradient>
<linearGradient id="paint16_linear_2349_10100" x1="21.3469" y1="17.9782" x2="23.4563" y2="18.2595" gradientUnits="userSpaceOnUse">
<stop stop-color="#814AA0" stop-opacity="0"/>
<stop offset="0.1758" stop-color="#7F499E" stop-opacity="0.038"/>
<stop offset="0.3644" stop-color="#7B4699" stop-opacity="0.149"/>
<stop offset="0.559" stop-color="#744291" stop-opacity="0.333"/>
<stop offset="0.7577" stop-color="#6A3C85" stop-opacity="0.592"/>
<stop offset="0.9577" stop-color="#5D3477" stop-opacity="0.922"/>
<stop offset="1" stop-color="#5B3374"/>
</linearGradient>
<linearGradient id="paint17_linear_2349_10100" x1="12.1876" y1="22.7763" x2="12.1876" y2="24.6607" gradientUnits="userSpaceOnUse">
<stop stop-color="#814AA0" stop-opacity="0"/>
<stop offset="0.1758" stop-color="#7F499E" stop-opacity="0.038"/>
<stop offset="0.3644" stop-color="#7B4699" stop-opacity="0.149"/>
<stop offset="0.559" stop-color="#744291" stop-opacity="0.333"/>
<stop offset="0.7577" stop-color="#6A3C85" stop-opacity="0.592"/>
<stop offset="0.9577" stop-color="#5D3477" stop-opacity="0.922"/>
<stop offset="1" stop-color="#5B3374"/>
</linearGradient>
<linearGradient id="paint18_linear_2349_10100" x1="17.5368" y1="22.4905" x2="10.0812" y2="15.035" gradientUnits="userSpaceOnUse">
<stop stop-color="#814AA0" stop-opacity="0"/>
<stop offset="0.1758" stop-color="#7F499E" stop-opacity="0.038"/>
<stop offset="0.3644" stop-color="#7B4699" stop-opacity="0.149"/>
<stop offset="0.559" stop-color="#744291" stop-opacity="0.333"/>
<stop offset="0.7577" stop-color="#6A3C85" stop-opacity="0.592"/>
<stop offset="0.9577" stop-color="#5D3477" stop-opacity="0.922"/>
<stop offset="1" stop-color="#5B3374"/>
</linearGradient>
<linearGradient id="paint19_linear_2349_10100" x1="9.9046" y1="14.8598" x2="15.0631" y2="20.0183" gradientUnits="userSpaceOnUse">
<stop stop-color="#F3FAFF"/>
<stop offset="1" stop-color="#D5DAF3"/>
</linearGradient>
<linearGradient id="paint20_linear_2349_10100" x1="11.3357" y1="16.3325" x2="13.4863" y2="18.402" gradientUnits="userSpaceOnUse">
<stop stop-color="#FE646F"/>
<stop offset="0.235" stop-color="#FA5964"/>
<stop offset="0.6415" stop-color="#EF3D49"/>
<stop offset="1" stop-color="#E41F2D"/>
</linearGradient>
<linearGradient id="paint21_linear_2349_10100" x1="12.4715" y1="17.956" x2="13.0193" y2="21.9733" gradientUnits="userSpaceOnUse">
<stop stop-color="#DBD5EF" stop-opacity="0"/>
<stop offset="0.2667" stop-color="#D8D2EC" stop-opacity="0.023"/>
<stop offset="0.4431" stop-color="#D1C9E2" stop-opacity="0.098"/>
<stop offset="0.5933" stop-color="#C4B9D1" stop-opacity="0.225"/>
<stop offset="0.7288" stop-color="#B2A4BA" stop-opacity="0.405"/>
<stop offset="0.8545" stop-color="#9A889C" stop-opacity="0.638"/>
<stop offset="0.9713" stop-color="#7E6678" stop-opacity="0.92"/>
<stop offset="1" stop-color="#765D6E"/>
</linearGradient>
<linearGradient id="paint22_linear_2349_10100" x1="12.4918" y1="17.3622" x2="16.9199" y2="18.047" gradientUnits="userSpaceOnUse">
<stop stop-color="#DBD5EF" stop-opacity="0"/>
<stop offset="0.2667" stop-color="#D8D2EC" stop-opacity="0.023"/>
<stop offset="0.4431" stop-color="#D1C9E2" stop-opacity="0.098"/>
<stop offset="0.5933" stop-color="#C4B9D1" stop-opacity="0.225"/>
<stop offset="0.7288" stop-color="#B2A4BA" stop-opacity="0.405"/>
<stop offset="0.8545" stop-color="#9A889C" stop-opacity="0.638"/>
<stop offset="0.9713" stop-color="#7E6678" stop-opacity="0.92"/>
<stop offset="1" stop-color="#765D6E"/>
</linearGradient>
<linearGradient id="paint23_linear_2349_10100" x1="13.9805" y1="18.9343" x2="16.2502" y2="21.204" gradientUnits="userSpaceOnUse">
<stop stop-color="#D5DAF3" stop-opacity="0"/>
<stop offset="0.1385" stop-color="#D8DDF4" stop-opacity="0.114"/>
<stop offset="0.4399" stop-color="#E1E6F7" stop-opacity="0.406"/>
<stop offset="0.8782" stop-color="#EFF5FD" stop-opacity="0.867"/>
<stop offset="1" stop-color="#F3FAFF"/>
</linearGradient>
</defs>
</svg>
