<svg width="24" height="17" viewBox="0 0 24 17" fill="none" xmlns="http://www.w3.org/2000/svg">
<g id="Group 1000000892">
<g id="Vector">
<path d="M22.1143 16.4605H1.88571C0.857143 16.4605 0 15.5929 0 14.5518V2.75246C0 1.71135 0.857143 0.84375 1.88571 0.84375H22.0286C23.1429 0.84375 24 1.71135 24 2.75246V14.465C24 15.5929 23.1429 16.4605 22.1143 16.4605Z" fill="url(#paint0_linear_2345_9926)"/>
<path d="M22.1143 16.4605H1.88571C0.857143 16.4605 0 15.5929 0 14.5518V2.75246C0 1.71135 0.857143 0.84375 1.88571 0.84375H22.0286C23.1429 0.84375 24 1.71135 24 2.75246V14.465C24 15.5929 23.1429 16.4605 22.1143 16.4605Z" fill="url(#paint1_linear_2345_9926)"/>
<path d="M22.1143 16.4605H1.88571C0.857143 16.4605 0 15.5929 0 14.5518V2.75246C0 1.71135 0.857143 0.84375 1.88571 0.84375H22.0286C23.1429 0.84375 24 1.71135 24 2.75246V14.465C24 15.5929 23.1429 16.4605 22.1143 16.4605Z" fill="url(#paint2_linear_2345_9926)"/>
<path d="M22.1143 16.4605H1.88571C0.857143 16.4605 0 15.5929 0 14.5518V2.75246C0 1.71135 0.857143 0.84375 1.88571 0.84375H22.0286C23.1429 0.84375 24 1.71135 24 2.75246V14.465C24 15.5929 23.1429 16.4605 22.1143 16.4605Z" fill="url(#paint3_linear_2345_9926)"/>
<path d="M22.1143 16.4605H1.88571C0.857143 16.4605 0 15.5929 0 14.5518V2.75246C0 1.71135 0.857143 0.84375 1.88571 0.84375H22.0286C23.1429 0.84375 24 1.71135 24 2.75246V14.465C24 15.5929 23.1429 16.4605 22.1143 16.4605Z" fill="url(#paint4_linear_2345_9926)"/>
<path d="M22.1143 16.4605H1.88571C0.857143 16.4605 0 15.5929 0 14.5518V2.75246C0 1.71135 0.857143 0.84375 1.88571 0.84375H22.0286C23.1429 0.84375 24 1.71135 24 2.75246V14.465C24 15.5929 23.1429 16.4605 22.1143 16.4605Z" fill="url(#paint5_radial_2345_9926)"/>
<path d="M22.1143 16.4605H1.88571C0.857143 16.4605 0 15.5929 0 14.5518V2.75246C0 1.71135 0.857143 0.84375 1.88571 0.84375H22.0286C23.1429 0.84375 24 1.71135 24 2.75246V14.465C24 15.5929 23.1429 16.4605 22.1143 16.4605Z" fill="url(#paint6_radial_2345_9926)"/>
<path d="M22.1143 16.4605H1.88571C0.857143 16.4605 0 15.5929 0 14.5518V2.75246C0 1.71135 0.857143 0.84375 1.88571 0.84375H22.0286C23.1429 0.84375 24 1.71135 24 2.75246V14.465C24 15.5929 23.1429 16.4605 22.1143 16.4605Z" fill="url(#paint7_radial_2345_9926)" fill-opacity="0.84"/>
<path d="M22.1143 16.4605H1.88571C0.857143 16.4605 0 15.5929 0 14.5518V2.75246C0 1.71135 0.857143 0.84375 1.88571 0.84375H22.0286C23.1429 0.84375 24 1.71135 24 2.75246V14.465C24 15.5929 23.1429 16.4605 22.1143 16.4605Z" fill="url(#paint8_radial_2345_9926)" fill-opacity="0.76"/>
</g>
<path id="Vector_2" d="M20.8834 14.877H10.6834C10.4263 14.877 10.1691 14.7035 10.1691 14.3565V12.7081C10.1691 12.4478 10.3406 12.1875 10.6834 12.1875H20.8834C21.1406 12.1875 21.3977 12.361 21.3977 12.7081V14.3565C21.3977 14.6168 21.1406 14.877 20.8834 14.877Z" fill="#359EDA"/>
<g id="Vector_3">
<path d="M21.002 14.7267H10.802C10.5448 14.7267 10.2877 14.5531 10.2877 14.2061V12.5577C10.2877 12.2974 10.4591 12.0371 10.802 12.0371H21.002C21.2591 12.0371 21.5163 12.2106 21.5163 12.5577V14.2061C21.5163 14.4664 21.2591 14.7267 21.002 14.7267Z" fill="#E2DDDE"/>
<path d="M21.002 14.7267H10.802C10.5448 14.7267 10.2877 14.5531 10.2877 14.2061V12.5577C10.2877 12.2974 10.4591 12.0371 10.802 12.0371H21.002C21.2591 12.0371 21.5163 12.2106 21.5163 12.5577V14.2061C21.5163 14.4664 21.2591 14.7267 21.002 14.7267Z" fill="url(#paint9_linear_2345_9926)"/>
<path d="M21.002 14.7267H10.802C10.5448 14.7267 10.2877 14.5531 10.2877 14.2061V12.5577C10.2877 12.2974 10.4591 12.0371 10.802 12.0371H21.002C21.2591 12.0371 21.5163 12.2106 21.5163 12.5577V14.2061C21.5163 14.4664 21.2591 14.7267 21.002 14.7267Z" fill="url(#paint10_linear_2345_9926)"/>
<path d="M21.002 14.7267H10.802C10.5448 14.7267 10.2877 14.5531 10.2877 14.2061V12.5577C10.2877 12.2974 10.4591 12.0371 10.802 12.0371H21.002C21.2591 12.0371 21.5163 12.2106 21.5163 12.5577V14.2061C21.5163 14.4664 21.2591 14.7267 21.002 14.7267Z" fill="url(#paint11_linear_2345_9926)"/>
</g>
<path id="Vector_4" d="M19.3708 13.8598H11.6565C11.3994 13.8598 11.2279 13.6863 11.2279 13.426C11.2279 13.1657 11.3994 12.9922 11.6565 12.9922H19.3708C19.6279 12.9922 19.7994 13.1657 19.7994 13.426C19.7994 13.6863 19.5422 13.8598 19.3708 13.8598Z" fill="url(#paint12_linear_2345_9926)"/>
<g id="Vector (Stroke)">
<path fill-rule="evenodd" clip-rule="evenodd" d="M10.2877 9.08614C10.2877 8.84656 10.4796 8.65234 10.7163 8.65234H21.0877C21.3244 8.65234 21.5163 8.84656 21.5163 9.08614C21.5163 9.32572 21.3244 9.51994 21.0877 9.51994H10.7163C10.4796 9.51994 10.2877 9.32572 10.2877 9.08614Z" fill="url(#paint13_radial_2345_9926)"/>
<path fill-rule="evenodd" clip-rule="evenodd" d="M10.2877 9.08614C10.2877 8.84656 10.4796 8.65234 10.7163 8.65234H21.0877C21.3244 8.65234 21.5163 8.84656 21.5163 9.08614C21.5163 9.32572 21.3244 9.51994 21.0877 9.51994H10.7163C10.4796 9.51994 10.2877 9.32572 10.2877 9.08614Z" fill="url(#paint14_linear_2345_9926)"/>
<path fill-rule="evenodd" clip-rule="evenodd" d="M10.2877 9.08614C10.2877 8.84656 10.4796 8.65234 10.7163 8.65234H21.0877C21.3244 8.65234 21.5163 8.84656 21.5163 9.08614C21.5163 9.32572 21.3244 9.51994 21.0877 9.51994H10.7163C10.4796 9.51994 10.2877 9.32572 10.2877 9.08614Z" fill="url(#paint15_radial_2345_9926)"/>
<path fill-rule="evenodd" clip-rule="evenodd" d="M10.2877 9.08614C10.2877 8.84656 10.4796 8.65234 10.7163 8.65234H21.0877C21.3244 8.65234 21.5163 8.84656 21.5163 9.08614C21.5163 9.32572 21.3244 9.51994 21.0877 9.51994H10.7163C10.4796 9.51994 10.2877 9.32572 10.2877 9.08614Z" fill="url(#paint16_radial_2345_9926)"/>
<path fill-rule="evenodd" clip-rule="evenodd" d="M10.2877 9.08614C10.2877 8.84656 10.4796 8.65234 10.7163 8.65234H21.0877C21.3244 8.65234 21.5163 8.84656 21.5163 9.08614C21.5163 9.32572 21.3244 9.51994 21.0877 9.51994H10.7163C10.4796 9.51994 10.2877 9.32572 10.2877 9.08614Z" fill="url(#paint17_linear_2345_9926)"/>
</g>
<g id="Vector (Stroke)_2">
<path fill-rule="evenodd" clip-rule="evenodd" d="M10.2877 6.48653C10.2877 6.24695 10.4796 6.05273 10.7163 6.05273H21.0877C21.3244 6.05273 21.5163 6.24695 21.5163 6.48653C21.5163 6.72611 21.3244 6.92033 21.0877 6.92033H10.7163C10.4796 6.92033 10.2877 6.72611 10.2877 6.48653Z" fill="url(#paint18_radial_2345_9926)"/>
<path fill-rule="evenodd" clip-rule="evenodd" d="M10.2877 6.48653C10.2877 6.24695 10.4796 6.05273 10.7163 6.05273H21.0877C21.3244 6.05273 21.5163 6.24695 21.5163 6.48653C21.5163 6.72611 21.3244 6.92033 21.0877 6.92033H10.7163C10.4796 6.92033 10.2877 6.72611 10.2877 6.48653Z" fill="url(#paint19_linear_2345_9926)"/>
<path fill-rule="evenodd" clip-rule="evenodd" d="M10.2877 6.48653C10.2877 6.24695 10.4796 6.05273 10.7163 6.05273H21.0877C21.3244 6.05273 21.5163 6.24695 21.5163 6.48653C21.5163 6.72611 21.3244 6.92033 21.0877 6.92033H10.7163C10.4796 6.92033 10.2877 6.72611 10.2877 6.48653Z" fill="url(#paint20_radial_2345_9926)"/>
<path fill-rule="evenodd" clip-rule="evenodd" d="M10.2877 6.48653C10.2877 6.24695 10.4796 6.05273 10.7163 6.05273H21.0877C21.3244 6.05273 21.5163 6.24695 21.5163 6.48653C21.5163 6.72611 21.3244 6.92033 21.0877 6.92033H10.7163C10.4796 6.92033 10.2877 6.72611 10.2877 6.48653Z" fill="url(#paint21_radial_2345_9926)"/>
<path fill-rule="evenodd" clip-rule="evenodd" d="M10.2877 6.48653C10.2877 6.24695 10.4796 6.05273 10.7163 6.05273H21.0877C21.3244 6.05273 21.5163 6.24695 21.5163 6.48653C21.5163 6.72611 21.3244 6.92033 21.0877 6.92033H10.7163C10.4796 6.92033 10.2877 6.72611 10.2877 6.48653Z" fill="url(#paint22_linear_2345_9926)"/>
</g>
<g id="Vector (Stroke)_3">
<path fill-rule="evenodd" clip-rule="evenodd" d="M10.1995 3.87716C10.1995 3.63758 10.3913 3.44336 10.628 3.44336H21.0852C21.3219 3.44336 21.5138 3.63758 21.5138 3.87716C21.5138 4.11674 21.3219 4.31096 21.0852 4.31096H10.628C10.3913 4.31096 10.1995 4.11674 10.1995 3.87716Z" fill="url(#paint23_radial_2345_9926)"/>
<path fill-rule="evenodd" clip-rule="evenodd" d="M10.1995 3.87716C10.1995 3.63758 10.3913 3.44336 10.628 3.44336H21.0852C21.3219 3.44336 21.5138 3.63758 21.5138 3.87716C21.5138 4.11674 21.3219 4.31096 21.0852 4.31096H10.628C10.3913 4.31096 10.1995 4.11674 10.1995 3.87716Z" fill="url(#paint24_linear_2345_9926)"/>
<path fill-rule="evenodd" clip-rule="evenodd" d="M10.1995 3.87716C10.1995 3.63758 10.3913 3.44336 10.628 3.44336H21.0852C21.3219 3.44336 21.5138 3.63758 21.5138 3.87716C21.5138 4.11674 21.3219 4.31096 21.0852 4.31096H10.628C10.3913 4.31096 10.1995 4.11674 10.1995 3.87716Z" fill="url(#paint25_radial_2345_9926)"/>
<path fill-rule="evenodd" clip-rule="evenodd" d="M10.1995 3.87716C10.1995 3.63758 10.3913 3.44336 10.628 3.44336H21.0852C21.3219 3.44336 21.5138 3.63758 21.5138 3.87716C21.5138 4.11674 21.3219 4.31096 21.0852 4.31096H10.628C10.3913 4.31096 10.1995 4.11674 10.1995 3.87716Z" fill="url(#paint26_radial_2345_9926)"/>
<path fill-rule="evenodd" clip-rule="evenodd" d="M10.1995 3.87716C10.1995 3.63758 10.3913 3.44336 10.628 3.44336H21.0852C21.3219 3.44336 21.5138 3.63758 21.5138 3.87716C21.5138 4.11674 21.3219 4.31096 21.0852 4.31096H10.628C10.3913 4.31096 10.1995 4.11674 10.1995 3.87716Z" fill="url(#paint27_linear_2345_9926)"/>
</g>
<g id="Rectangle 204">
<path d="M1.76746 3.01583C1.76746 2.77625 1.95933 2.58203 2.19603 2.58203H8.15585C8.39254 2.58203 8.58442 2.77625 8.58442 3.01583V10.7971C8.58442 11.0367 8.39254 11.2309 8.15585 11.2309H2.19603C1.95933 11.2309 1.76746 11.0367 1.76746 10.7971V3.01583Z" fill="#E2DDDE"/>
<path d="M1.76746 3.01583C1.76746 2.77625 1.95933 2.58203 2.19603 2.58203H8.15585C8.39254 2.58203 8.58442 2.77625 8.58442 3.01583V10.7971C8.58442 11.0367 8.39254 11.2309 8.15585 11.2309H2.19603C1.95933 11.2309 1.76746 11.0367 1.76746 10.7971V3.01583Z" fill="url(#paint28_linear_2345_9926)"/>
<path d="M1.76746 3.01583C1.76746 2.77625 1.95933 2.58203 2.19603 2.58203H8.15585C8.39254 2.58203 8.58442 2.77625 8.58442 3.01583V10.7971C8.58442 11.0367 8.39254 11.2309 8.15585 11.2309H2.19603C1.95933 11.2309 1.76746 11.0367 1.76746 10.7971V3.01583Z" fill="url(#paint29_linear_2345_9926)"/>
<path d="M1.76746 3.01583C1.76746 2.77625 1.95933 2.58203 2.19603 2.58203H8.15585C8.39254 2.58203 8.58442 2.77625 8.58442 3.01583V10.7971C8.58442 11.0367 8.39254 11.2309 8.15585 11.2309H2.19603C1.95933 11.2309 1.76746 11.0367 1.76746 10.7971V3.01583Z" fill="url(#paint30_linear_2345_9926)"/>
</g>
<path id="Intersect" d="M8.58442 10.6211V10.7981C8.58442 11.0376 8.39253 11.2319 8.15585 11.2319H2.19603C1.95935 11.2319 1.76746 11.0376 1.76746 10.7981V10.6211C2.22731 9.56235 3.1849 8.97893 4.06726 8.68411C4.10964 8.66996 4.10807 8.59985 4.06653 8.58345C3.69571 8.43703 3.4289 8.07908 3.41237 7.65388L3.38684 6.99214L3.3813 6.99216C3.03183 6.99216 2.74848 6.70539 2.74848 6.35163C2.74848 6.0128 3.00839 5.73542 3.33745 5.71262L3.30512 4.87535C3.27855 4.18645 3.82305 3.61328 4.5042 3.61328H5.78092C6.46636 3.61328 7.07929 4.19336 7.04633 4.88631L7.00699 5.71306C7.33313 5.73878 7.59 6.01485 7.59 6.35163C7.59 6.70539 7.30666 6.99216 6.95719 6.99216L6.9462 6.99206L6.9214 7.51336C6.89839 7.99757 6.64476 8.4037 6.25176 8.57811C6.21232 8.59565 6.21263 8.66049 6.25375 8.67392C7.14458 8.9654 8.11923 9.55002 8.58442 10.6211Z" fill="url(#paint31_linear_2345_9926)"/>
</g>
<defs>
<linearGradient id="paint0_linear_2345_9926" x1="12" y1="0.84375" x2="12" y2="15.7519" gradientUnits="userSpaceOnUse">
<stop stop-color="#57D8F2"/>
<stop offset="1" stop-color="#36A3E7"/>
</linearGradient>
<linearGradient id="paint1_linear_2345_9926" x1="12" y1="0.84375" x2="12" y2="16.4605" gradientUnits="userSpaceOnUse">
<stop offset="0.941427" stop-color="#3086BB" stop-opacity="0"/>
<stop offset="1" stop-color="#3086BB"/>
</linearGradient>
<linearGradient id="paint2_linear_2345_9926" x1="4.89882" y1="12.5713" x2="2.193e-07" y2="12.5713" gradientUnits="userSpaceOnUse">
<stop offset="0.843326" stop-color="#3086BB" stop-opacity="0"/>
<stop offset="1" stop-color="#3086BB"/>
</linearGradient>
<linearGradient id="paint3_linear_2345_9926" x1="12.7481" y1="12.1111" x2="24" y2="12.1111" gradientUnits="userSpaceOnUse">
<stop offset="0.918798" stop-color="#45C3FC" stop-opacity="0"/>
<stop offset="0.963739" stop-color="#59DBFF"/>
</linearGradient>
<linearGradient id="paint4_linear_2345_9926" x1="12.7481" y1="12.1111" x2="12.7481" y2="0.370605" gradientUnits="userSpaceOnUse">
<stop offset="0.904178" stop-color="#71FEFF" stop-opacity="0"/>
<stop offset="0.963739" stop-color="#6BF7FF"/>
</linearGradient>
<radialGradient id="paint5_radial_2345_9926" cx="0" cy="0" r="1" gradientUnits="userSpaceOnUse" gradientTransform="translate(5.30494 10.8219) rotate(90) scale(4.43988 22.2987)">
<stop stop-color="#267EB9"/>
<stop offset="0.190132" stop-color="#267EB9" stop-opacity="0"/>
</radialGradient>
<radialGradient id="paint6_radial_2345_9926" cx="0" cy="0" r="1" gradientUnits="userSpaceOnUse" gradientTransform="translate(2.36771 7.2724) rotate(-179.618) scale(4.80833 24.7417)">
<stop stop-color="#267EB9"/>
<stop offset="0.190132" stop-color="#267EB9" stop-opacity="0"/>
</radialGradient>
<radialGradient id="paint7_radial_2345_9926" cx="0" cy="0" r="1" gradientUnits="userSpaceOnUse" gradientTransform="translate(23.1817 1.5723) rotate(122.724) scale(2.08437 3.22626)">
<stop stop-color="#71FCFF"/>
<stop offset="1" stop-color="#71FCFF" stop-opacity="0"/>
</radialGradient>
<radialGradient id="paint8_radial_2345_9926" cx="0" cy="0" r="1" gradientUnits="userSpaceOnUse" gradientTransform="translate(21.8287 3.35588) rotate(90) scale(3.21681 2.89486)">
<stop offset="0.419716" stop-color="#4EC9EF"/>
<stop offset="0.694835" stop-color="#4EC9EF" stop-opacity="0"/>
</radialGradient>
<linearGradient id="paint9_linear_2345_9926" x1="16.252" y1="13.9776" x2="21.7978" y2="13.9776" gradientUnits="userSpaceOnUse">
<stop offset="0.918798" stop-color="white" stop-opacity="0"/>
<stop offset="0.963739" stop-color="white"/>
</linearGradient>
<linearGradient id="paint10_linear_2345_9926" x1="16.252" y1="13.9776" x2="16.252" y2="14.7996" gradientUnits="userSpaceOnUse">
<stop offset="0.726459" stop-color="#D7D0D2" stop-opacity="0"/>
<stop offset="0.989583" stop-color="#D7D0D2"/>
</linearGradient>
<linearGradient id="paint11_linear_2345_9926" x1="16.252" y1="13.9776" x2="10.2877" y2="13.9776" gradientUnits="userSpaceOnUse">
<stop offset="0.949667" stop-color="#D7D0D2" stop-opacity="0"/>
<stop offset="0.989583" stop-color="#D7D0D2"/>
</linearGradient>
<linearGradient id="paint12_linear_2345_9926" x1="11.198" y1="13.423" x2="19.7636" y2="13.423" gradientUnits="userSpaceOnUse">
<stop stop-color="#41344A"/>
<stop offset="1" stop-color="#2F2C31"/>
</linearGradient>
<radialGradient id="paint13_radial_2345_9926" cx="0" cy="0" r="1" gradientUnits="userSpaceOnUse" gradientTransform="translate(19.7698 8.84034) rotate(90) scale(1.11161 11.3839)">
<stop stop-color="#3476CE"/>
<stop offset="1" stop-color="#3375CD"/>
</radialGradient>
<linearGradient id="paint14_linear_2345_9926" x1="15.902" y1="8.65234" x2="15.902" y2="9.67542" gradientUnits="userSpaceOnUse">
<stop offset="0.714596" stop-color="#1E61AE" stop-opacity="0"/>
<stop offset="0.904571" stop-color="#1E61AE"/>
</linearGradient>
<radialGradient id="paint15_radial_2345_9926" cx="0" cy="0" r="1" gradientUnits="userSpaceOnUse" gradientTransform="translate(10.5741 9.28473) rotate(-21.9596) scale(0.53104 7.11069)">
<stop stop-color="#1E61AE"/>
<stop offset="1" stop-color="#1E61AE" stop-opacity="0"/>
</radialGradient>
<radialGradient id="paint16_radial_2345_9926" cx="0" cy="0" r="1" gradientUnits="userSpaceOnUse" gradientTransform="translate(10.9294 9.08614) rotate(-180) scale(0.880054 0.641892)">
<stop offset="0.449155" stop-color="#3476CE"/>
<stop offset="0.749881" stop-color="#3476CE" stop-opacity="0"/>
</radialGradient>
<linearGradient id="paint17_linear_2345_9926" x1="15.902" y1="8.65234" x2="15.902" y2="9.51994" gradientUnits="userSpaceOnUse">
<stop stop-color="#518CE9"/>
<stop offset="0.267147" stop-color="#518CE9" stop-opacity="0"/>
</linearGradient>
<radialGradient id="paint18_radial_2345_9926" cx="0" cy="0" r="1" gradientUnits="userSpaceOnUse" gradientTransform="translate(19.7698 6.24073) rotate(90) scale(1.11161 11.3839)">
<stop stop-color="#3476CE"/>
<stop offset="1" stop-color="#3375CD"/>
</radialGradient>
<linearGradient id="paint19_linear_2345_9926" x1="15.902" y1="6.05273" x2="15.902" y2="7.07581" gradientUnits="userSpaceOnUse">
<stop offset="0.714596" stop-color="#1E61AE" stop-opacity="0"/>
<stop offset="0.904571" stop-color="#1E61AE"/>
</linearGradient>
<radialGradient id="paint20_radial_2345_9926" cx="0" cy="0" r="1" gradientUnits="userSpaceOnUse" gradientTransform="translate(10.5741 6.68512) rotate(-21.9596) scale(0.53104 7.11069)">
<stop stop-color="#1E61AE"/>
<stop offset="1" stop-color="#1E61AE" stop-opacity="0"/>
</radialGradient>
<radialGradient id="paint21_radial_2345_9926" cx="0" cy="0" r="1" gradientUnits="userSpaceOnUse" gradientTransform="translate(10.9294 6.48653) rotate(-180) scale(0.880054 0.641892)">
<stop offset="0.449155" stop-color="#3476CE"/>
<stop offset="0.749881" stop-color="#3476CE" stop-opacity="0"/>
</radialGradient>
<linearGradient id="paint22_linear_2345_9926" x1="15.902" y1="6.05273" x2="15.902" y2="6.92033" gradientUnits="userSpaceOnUse">
<stop stop-color="#518CE9"/>
<stop offset="0.267147" stop-color="#518CE9" stop-opacity="0"/>
</linearGradient>
<radialGradient id="paint23_radial_2345_9926" cx="0" cy="0" r="1" gradientUnits="userSpaceOnUse" gradientTransform="translate(19.754 3.63136) rotate(90) scale(1.11161 11.4708)">
<stop stop-color="#3476CE"/>
<stop offset="1" stop-color="#3375CD"/>
</radialGradient>
<linearGradient id="paint24_linear_2345_9926" x1="15.8566" y1="3.44336" x2="15.8566" y2="4.46644" gradientUnits="userSpaceOnUse">
<stop offset="0.714596" stop-color="#1E61AE" stop-opacity="0"/>
<stop offset="0.904571" stop-color="#1E61AE"/>
</linearGradient>
<radialGradient id="paint25_radial_2345_9926" cx="0" cy="0" r="1" gradientUnits="userSpaceOnUse" gradientTransform="translate(10.4881 4.07574) rotate(-21.8089) scale(0.534528 7.11821)">
<stop stop-color="#1E61AE"/>
<stop offset="1" stop-color="#1E61AE" stop-opacity="0"/>
</radialGradient>
<radialGradient id="paint26_radial_2345_9926" cx="0" cy="0" r="1" gradientUnits="userSpaceOnUse" gradientTransform="translate(10.846 3.87716) rotate(-180) scale(0.886773 0.641892)">
<stop offset="0.449155" stop-color="#3476CE"/>
<stop offset="0.749881" stop-color="#3476CE" stop-opacity="0"/>
</radialGradient>
<linearGradient id="paint27_linear_2345_9926" x1="15.8566" y1="3.44336" x2="15.8566" y2="4.31096" gradientUnits="userSpaceOnUse">
<stop stop-color="#518CE9"/>
<stop offset="0.267147" stop-color="#518CE9" stop-opacity="0"/>
</linearGradient>
<linearGradient id="paint28_linear_2345_9926" x1="5.38843" y1="8.82209" x2="8.75532" y2="8.82209" gradientUnits="userSpaceOnUse">
<stop offset="0.918798" stop-color="white" stop-opacity="0"/>
<stop offset="0.963739" stop-color="white"/>
</linearGradient>
<linearGradient id="paint29_linear_2345_9926" x1="5.38843" y1="8.82209" x2="5.38843" y2="11.4653" gradientUnits="userSpaceOnUse">
<stop offset="0.726459" stop-color="#D7D0D2" stop-opacity="0"/>
<stop offset="0.989583" stop-color="#D7D0D2"/>
</linearGradient>
<linearGradient id="paint30_linear_2345_9926" x1="5.38843" y1="8.82209" x2="1.76746" y2="8.82209" gradientUnits="userSpaceOnUse">
<stop offset="0.949667" stop-color="#D7D0D2" stop-opacity="0"/>
<stop offset="0.989583" stop-color="#D7D0D2"/>
</linearGradient>
<linearGradient id="paint31_linear_2345_9926" x1="5.17594" y1="4.45376" x2="5.17594" y2="11.2319" gradientUnits="userSpaceOnUse">
<stop stop-color="#44354F"/>
<stop offset="1" stop-color="#372E3C"/>
</linearGradient>
</defs>
</svg>
