<svg width="24" height="25" viewBox="0 0 24 25" fill="none" xmlns="http://www.w3.org/2000/svg">
<g id="3d-map 2" clip-path="url(#clip0_3755_13789)">
<g id="Group">
<g id="Group_2">
<g id="Group_3">
<g id="Group_4">
<path id="Vector" d="M22.67 24.5023C15.9562 21.984 8.7776 26.2396 2.04836 23.9465C0.983597 23.5837 0.314128 22.5284 0.423488 21.4088C0.77491 17.8103 1.12638 14.2118 1.4778 10.6133C1.54075 9.96844 2.15711 9.53293 2.78866 9.6774C9.16933 11.1373 15.0851 5.80538 21.4596 7.17418C22.2364 7.341 22.8085 8.0034 22.8693 8.79563C23.2454 13.6959 23.6214 18.5963 23.9974 23.4966C24.0526 24.2149 23.3446 24.7554 22.67 24.5023Z" fill="url(#paint0_linear_3755_13789)"/>
<path id="Vector_2" d="M12.4411 8.35938C9.26275 9.37094 6.08786 10.4319 2.78866 9.67703C2.15711 9.53252 1.54075 9.96808 1.4778 10.6129C1.12638 14.2114 0.774957 17.8099 0.423488 21.4084C0.314128 22.528 0.983597 23.5833 2.04836 23.9462C5.43752 25.1011 8.94067 24.5948 12.4411 24.1295V8.35938Z" fill="url(#paint1_linear_3755_13789)"/>
<path id="Vector_3" d="M0.423488 21.409C0.314128 22.5286 0.983597 23.5839 2.04836 23.9468C8.77755 26.2398 15.9562 21.9842 22.67 24.5025C23.3446 24.7556 24.0526 24.2152 23.9974 23.4968C23.8186 21.1665 23.6398 18.8362 23.461 16.5059H0.902363C0.742753 18.1403 0.583097 19.7746 0.423488 21.409Z" fill="url(#paint2_linear_3755_13789)"/>
<path id="Vector_4" d="M22.8689 8.79562C22.8081 8.00338 22.2359 7.34099 21.4591 7.17416C19.6673 6.78941 17.9117 6.93412 16.1719 7.30855V23.7255C18.3651 23.5866 20.5407 23.7037 22.6695 24.5023C23.3441 24.7553 24.0521 24.2149 23.997 23.4966C23.6209 18.5963 23.2449 13.696 22.8689 8.79562Z" fill="url(#paint3_linear_3755_13789)"/>
<path id="Vector_5" d="M22.8694 8.79557C22.8086 8.00334 22.2365 7.34095 21.4596 7.17412C19.2502 6.6997 17.096 7.03045 14.9583 7.60415V11.2995H23.0616C22.9975 10.4649 22.9334 9.63028 22.8694 8.79557Z" fill="url(#paint4_linear_3755_13789)"/>
</g>
</g>
<g id="Group_5">
<path id="Vector_6" d="M21.9587 18.9632L19.0005 16.0049C17.8633 14.8677 16.3511 14.2415 14.7433 14.2415C12.6219 14.2415 10.8145 12.8724 10.1585 10.9711L10.5442 10.1765C11.2175 9.97937 11.8841 9.76708 12.5444 9.5568C14.8637 8.81758 17.0547 8.11914 19.2658 8.11914C19.9469 8.11914 20.5839 8.18477 21.213 8.31977C21.4792 8.37695 21.6794 8.60945 21.7005 8.88508L22.4358 18.4691L21.9587 18.9632Z" fill="url(#paint5_linear_3755_13789)"/>
</g>
<g id="Group_6">
<path id="Vector_7" d="M21.9587 18.9632L19.0005 16.0049C17.8633 14.8677 16.3511 14.2415 14.7433 14.2415C12.6219 14.2415 10.8145 12.8724 10.1585 10.9711L10.5442 10.1765C11.2175 9.97937 11.8841 9.76708 12.5444 9.5568C14.8637 8.81758 17.0547 8.11914 19.2658 8.11914C19.9469 8.11914 20.5839 8.18477 21.213 8.31977C21.4792 8.37695 21.6794 8.60945 21.7005 8.88508L22.4358 18.4691L21.9587 18.9632Z" fill="url(#paint6_linear_3755_13789)"/>
</g>
<g id="Group_7">
<path id="Vector_8" d="M22.4358 18.4691L21.9586 18.9632L19.0003 16.0049C18.2081 15.2127 17.2336 14.6685 16.1719 14.4116V8.50727C17.2092 8.27055 18.2353 8.11914 19.2656 8.11914C19.9467 8.11914 20.5838 8.18477 21.2128 8.31977C21.4791 8.37695 21.6792 8.60945 21.7003 8.88508L22.4358 18.4691Z" fill="url(#paint7_linear_3755_13789)"/>
</g>
<g id="Group_8">
<g id="Group_9">
<path id="Vector_9" d="M22.7494 22.5501C22.7768 22.9067 22.44 23.1798 22.0963 23.0811C20.7489 22.6941 19.2903 22.5048 17.6686 22.5048C15.7754 22.5048 13.8732 22.7584 12.0333 23.0035C10.1888 23.2491 8.44646 23.4812 6.7088 23.4812C6.70833 23.4812 6.70786 23.4812 6.70786 23.4812C5.09536 23.4812 3.69521 23.2712 2.4263 22.839C1.87646 22.6515 1.5324 22.111 1.59005 21.5241L2.63302 10.8451C3.42802 11.0185 4.26099 11.1062 5.1113 11.1062C6.57061 11.1062 8.01802 10.8477 9.41349 10.4902L10.1588 10.9724C10.8171 12.8806 12.635 14.2528 14.7662 14.243C16.3612 14.2356 17.8875 14.8931 19.0153 16.0209L21.9591 18.9647L22.5751 20.2795L22.7494 22.5501Z" fill="url(#paint8_linear_3755_13789)"/>
</g>
<g id="Group_10">
<path id="Vector_10" d="M22.7494 22.5501C22.7768 22.9067 22.44 23.1798 22.0963 23.0811C20.7489 22.6941 19.2903 22.5048 17.6686 22.5048C15.7754 22.5048 13.8732 22.7584 12.0333 23.0035C10.1888 23.2491 8.44646 23.4812 6.7088 23.4812C6.70833 23.4812 6.70786 23.4812 6.70786 23.4812C5.09536 23.4812 3.69521 23.2712 2.4263 22.839C1.87646 22.6515 1.5324 22.111 1.59005 21.5241L2.63302 10.8451C3.42802 11.0185 4.26099 11.1062 5.1113 11.1062C6.57061 11.1062 8.01802 10.8477 9.41349 10.4902L10.1588 10.9724C10.8171 12.8806 12.635 14.2528 14.7662 14.243C16.3612 14.2356 17.8875 14.8931 19.0153 16.0209L21.9591 18.9647L22.5751 20.2795L22.7494 22.5501Z" fill="url(#paint9_linear_3755_13789)"/>
</g>
<path id="Vector_11" d="M1.58999 21.5247C1.53233 22.1116 1.8764 22.652 2.42624 22.8395C3.69515 23.2717 5.0953 23.4817 6.7078 23.4817H6.70874C8.4464 23.4817 10.1887 23.2497 12.0333 23.0041C13.8731 22.7589 15.7753 22.5053 17.6686 22.5053C19.2902 22.5053 20.7488 22.6947 22.0963 23.0817C22.44 23.1804 22.7767 22.9072 22.7493 22.5507L22.575 20.2802L21.959 18.9653L19.5015 16.5078H2.07997L1.58999 21.5247Z" fill="url(#paint10_linear_3755_13789)"/>
<g id="Group_11">
<path id="Vector_12" d="M22.7489 22.551C22.7762 22.9075 22.4395 23.1807 22.0958 23.082C20.7484 22.695 19.2898 22.5056 17.6681 22.5056C17.1694 22.5056 16.6702 22.523 16.1719 22.5539V14.4141C17.2336 14.6709 18.2081 15.2152 19.0003 16.0073L21.9586 18.9656L22.5745 20.2805L22.7489 22.551Z" fill="url(#paint11_linear_3755_13789)"/>
</g>
</g>
<g id="Group_12">
<path id="Vector_13" d="M22.5751 20.2775L18.653 16.3555C17.7371 15.44 16.5198 14.9356 15.2246 14.9356C12.4505 14.9356 10.1082 13.0494 9.41351 10.4919C9.60523 10.4427 9.79648 10.3916 9.98726 10.3386C10.1734 10.287 10.359 10.2341 10.5437 10.1797C11.101 12.2422 12.9882 13.7637 15.2246 13.7637C16.8329 13.7637 18.3446 14.39 19.4818 15.5272L22.4373 18.4827L22.5751 20.2775Z" fill="url(#paint12_linear_3755_13789)"/>
</g>
<path id="Vector_14" d="M18.6526 16.3542L22.5747 20.2762L22.4368 18.4814L19.4814 15.5259C18.3442 14.3887 16.8325 13.7625 15.2242 13.7625C13.8665 13.7625 12.6381 13.201 11.7573 12.2988V12.8267L13.658 14.7274C14.1576 14.8621 14.6826 14.9343 15.2241 14.9343C16.5193 14.9343 17.7367 15.4387 18.6526 16.3542Z" fill="url(#paint13_linear_3755_13789)"/>
<g id="Group_13">
<path id="Vector_15" d="M2.89148 3.27148C1.29455 3.27148 0 4.56603 0 6.16297V21.2114C0 22.8084 1.29455 24.1029 2.89148 24.1029C4.48842 24.1029 5.78297 22.8084 5.78297 21.2114V6.16297C5.78297 4.56603 4.48842 3.27148 2.89148 3.27148Z" fill="url(#paint14_linear_3755_13789)"/>
<path id="Vector_16" d="M2.89221 3.27148C2.45036 3.27148 2.03191 3.37095 1.65738 3.54814V23.8263C2.03191 24.0035 2.45036 24.1029 2.89221 24.1029C4.48915 24.1029 5.78369 22.8084 5.78369 21.2114V6.16297C5.78369 4.56603 4.48915 3.27148 2.89221 3.27148Z" fill="url(#paint15_linear_3755_13789)"/>
<path id="Vector_17" d="M2.89148 24.1013C4.48841 24.1013 5.78297 22.8068 5.78297 21.2098C5.78297 19.6129 4.48841 18.3184 2.89148 18.3184C1.29456 18.3184 0 19.6129 0 21.2098C0 22.8068 1.29456 24.1013 2.89148 24.1013Z" fill="url(#paint16_linear_3755_13789)"/>
<path id="Vector_18" d="M2.89148 24.1013C4.48841 24.1013 5.78297 22.8068 5.78297 21.2098C5.78297 19.6129 4.48841 18.3184 2.89148 18.3184C1.29456 18.3184 0 19.6129 0 21.2098C0 22.8068 1.29456 24.1013 2.89148 24.1013Z" fill="url(#paint17_linear_3755_13789)"/>
<path id="Vector_19" d="M5.6347 20.2917C5.80387 20.7977 5.66691 21.3528 5.29172 21.732C4.73362 22.2961 3.93952 22.6487 3.05836 22.6487C2.84302 22.6487 2.63278 22.6275 2.42995 22.5875C2.21545 22.5451 2.0625 22.3541 2.0625 22.1355V18.4395C2.32505 18.3604 2.60391 18.3184 2.89219 18.3184C4.16827 18.3183 5.25117 19.1448 5.6347 20.2917Z" fill="url(#paint18_linear_3755_13789)"/>
<path id="Vector_20" d="M5.6347 20.2917C5.80387 20.7977 5.66691 21.3528 5.29172 21.732C4.73362 22.2961 3.93952 22.6487 3.05836 22.6487C2.84302 22.6487 2.63278 22.6275 2.42995 22.5875C2.21545 22.5451 2.0625 22.3541 2.0625 22.1355V18.4395C2.32505 18.3604 2.60391 18.3184 2.89219 18.3184C4.16827 18.3183 5.25117 19.1448 5.6347 20.2917Z" fill="url(#paint19_linear_3755_13789)"/>
</g>
<path id="Vector_21" d="M19.4813 15.5253C18.5707 14.6147 17.42 14.0322 16.1719 13.8359V15.0258C17.1057 15.2098 17.9642 15.6656 18.6525 16.3535L22.5745 20.2755L22.4367 18.4807L19.4813 15.5253Z" fill="url(#paint20_linear_3755_13789)"/>
</g>
<g id="Group_14">
<path id="Vector_22" d="M12.2391 0.652465C9.57956 0.633715 7.41797 2.78411 7.41797 5.43925C7.41797 6.51943 7.77577 7.51576 8.37877 8.31672L11.4753 12.5724C11.8358 13.068 12.5743 13.068 12.9347 12.5724L16.0313 8.31672C16.627 7.52542 16.9836 6.54348 16.9921 5.47881C17.0133 2.84392 14.874 0.670653 12.2391 0.652465ZM12.2051 8.07301C10.7506 8.07301 9.57164 6.89397 9.57164 5.43925C9.57164 3.98481 10.7507 2.80581 12.2051 2.80581C13.6595 2.80581 14.8386 3.98486 14.8386 5.43925C14.8386 6.89397 13.6595 8.07301 12.2051 8.07301Z" fill="url(#paint21_linear_3755_13789)"/>
<path id="Vector_23" d="M12.2051 2.05859C10.338 2.05859 8.82431 3.572 8.82431 5.43908C8.82431 7.30616 10.338 8.81984 12.2051 8.81984C14.0722 8.81984 15.5858 7.30616 15.5858 5.43908C15.5858 3.572 14.0722 2.05859 12.2051 2.05859ZM12.2051 7.81358C10.8937 7.81358 9.8309 6.75041 9.8309 5.43908C9.8309 4.1278 10.8938 3.06491 12.2051 3.06491C13.5164 3.06491 14.5792 4.1278 14.5792 5.43908C14.5793 6.75041 13.5164 7.81358 12.2051 7.81358Z" fill="url(#paint22_linear_3755_13789)"/>
<path id="Vector_24" d="M14.5792 5.43984C14.5792 6.75117 13.5163 7.81434 12.205 7.81434C10.8937 7.81434 9.83086 6.75117 9.83086 5.43984C9.83086 5.09906 9.90319 4.77539 10.0324 4.48247H7.51383C7.45102 4.79184 7.41797 5.11195 7.41797 5.43984C7.41797 6.52003 7.77577 7.51636 8.37877 8.31731L11.4753 12.573C11.8358 13.0686 12.5743 13.0686 12.9347 12.573L16.0313 8.31731C16.627 7.52602 16.9836 6.54408 16.9921 5.47941C16.9948 5.13806 16.961 4.80459 16.8949 4.48242H14.3776C14.5069 4.77539 14.5792 5.09906 14.5792 5.43984Z" fill="url(#paint23_linear_3755_13789)"/>
<path id="Vector_25" d="M12.2383 0.652462C11.9567 0.650494 11.6808 0.673041 11.4124 0.717712V3.20082C11.6601 3.11317 11.9265 3.06503 12.2043 3.06503C13.5156 3.06503 14.5785 4.12792 14.5785 5.4392C14.5785 6.75052 13.5156 7.8137 12.2043 7.8137C11.9265 7.8137 11.6601 7.76556 11.4124 7.6779V12.4869L11.4745 12.5724C11.835 13.068 12.5735 13.068 12.9339 12.5724L16.0305 8.31671C16.6262 7.52542 16.9828 6.54348 16.9913 5.47881C17.0124 2.84392 14.8732 0.67065 12.2383 0.652462Z" fill="url(#paint24_linear_3755_13789)"/>
<path id="Vector_26" d="M12.2383 0.652462C11.9567 0.650494 11.6808 0.673041 11.4124 0.717712V3.20082C11.6601 3.11317 11.9265 3.06503 12.2043 3.06503C13.5156 3.06503 14.5785 4.12792 14.5785 5.4392C14.5785 6.75052 13.5156 7.8137 12.2043 7.8137C11.9265 7.8137 11.6601 7.76556 11.4124 7.6779V12.4869L11.4745 12.5724C11.835 13.068 12.5735 13.068 12.9339 12.5724L16.0305 8.31671C16.6262 7.52542 16.9828 6.54348 16.9913 5.47881C17.0124 2.84392 14.8732 0.67065 12.2383 0.652462Z" fill="url(#paint25_linear_3755_13789)"/>
</g>
</g>
</g>
<defs>
<linearGradient id="paint0_linear_3755_13789" x1="9.19516" y1="8.9745" x2="15.7008" y2="25.9149" gradientUnits="userSpaceOnUse">
<stop stop-color="#EAF9FA"/>
<stop offset="1" stop-color="#B3DAFE"/>
</linearGradient>
<linearGradient id="paint1_linear_3755_13789" x1="8.82447" y1="16.4813" x2="4.64763" y2="15.9526" gradientUnits="userSpaceOnUse">
<stop stop-color="#7BACDF" stop-opacity="0"/>
<stop offset="1" stop-color="#7BACDF"/>
</linearGradient>
<linearGradient id="paint2_linear_3755_13789" x1="12.0995" y1="21.138" x2="12.4168" y2="25.0505" gradientUnits="userSpaceOnUse">
<stop stop-color="#7BACDF" stop-opacity="0"/>
<stop offset="1" stop-color="#7BACDF"/>
</linearGradient>
<linearGradient id="paint3_linear_3755_13789" x1="21.4432" y1="15.7208" x2="23.6638" y2="15.5622" gradientUnits="userSpaceOnUse">
<stop stop-color="#7BACDF" stop-opacity="0"/>
<stop offset="1" stop-color="#7BACDF"/>
</linearGradient>
<linearGradient id="paint4_linear_3755_13789" x1="17.2163" y1="8.62556" x2="16.2361" y2="8.06864" gradientUnits="userSpaceOnUse">
<stop stop-color="#7BACDF" stop-opacity="0"/>
<stop offset="1" stop-color="#7BACDF"/>
</linearGradient>
<linearGradient id="paint5_linear_3755_13789" x1="13.8289" y1="13.5411" x2="20.929" y2="13.5411" gradientUnits="userSpaceOnUse">
<stop stop-color="#BBEC6C"/>
<stop offset="1" stop-color="#81B823"/>
</linearGradient>
<linearGradient id="paint6_linear_3755_13789" x1="16.2974" y1="10.6522" x2="14.3147" y2="9.44917" gradientUnits="userSpaceOnUse">
<stop stop-color="#026841" stop-opacity="0"/>
<stop offset="0.2391" stop-color="#0A6644" stop-opacity="0.239"/>
<stop offset="0.6113" stop-color="#20604D" stop-opacity="0.611"/>
<stop offset="1" stop-color="#3E5959"/>
</linearGradient>
<linearGradient id="paint7_linear_3755_13789" x1="20.3725" y1="13.5464" x2="22.4109" y2="13.4462" gradientUnits="userSpaceOnUse">
<stop stop-color="#026841" stop-opacity="0"/>
<stop offset="0.2391" stop-color="#0A6644" stop-opacity="0.239"/>
<stop offset="0.6113" stop-color="#20604D" stop-opacity="0.611"/>
<stop offset="1" stop-color="#3E5959"/>
</linearGradient>
<linearGradient id="paint8_linear_3755_13789" x1="8.235" y1="16.9858" x2="21.0013" y2="16.9858" gradientUnits="userSpaceOnUse">
<stop stop-color="#62DBFB"/>
<stop offset="0.1912" stop-color="#57D5FA"/>
<stop offset="0.5232" stop-color="#3BC5F7"/>
<stop offset="0.954" stop-color="#0DABF2"/>
<stop offset="1" stop-color="#08A9F1"/>
</linearGradient>
<linearGradient id="paint9_linear_3755_13789" x1="8.52014" y1="16.9858" x2="4.71014" y2="16.9858" gradientUnits="userSpaceOnUse">
<stop stop-color="#0593FC" stop-opacity="0"/>
<stop offset="0.6831" stop-color="#0389FC" stop-opacity="0.683"/>
<stop offset="1" stop-color="#0182FC"/>
</linearGradient>
<linearGradient id="paint10_linear_3755_13789" x1="12.0994" y1="21.0339" x2="12.2665" y2="23.7406" gradientUnits="userSpaceOnUse">
<stop stop-color="#0593FC" stop-opacity="0"/>
<stop offset="0.6831" stop-color="#0389FC" stop-opacity="0.683"/>
<stop offset="1" stop-color="#0182FC"/>
</linearGradient>
<linearGradient id="paint11_linear_3755_13789" x1="19.5274" y1="18.7245" x2="21.9667" y2="18.4571" gradientUnits="userSpaceOnUse">
<stop stop-color="#0593FC" stop-opacity="0"/>
<stop offset="0.6831" stop-color="#0389FC" stop-opacity="0.683"/>
<stop offset="1" stop-color="#0182FC"/>
</linearGradient>
<linearGradient id="paint12_linear_3755_13789" x1="11.2269" y1="15.2286" x2="20.6921" y2="15.2286" gradientUnits="userSpaceOnUse">
<stop stop-color="#FEF0AE"/>
<stop offset="1" stop-color="#FBC56D"/>
</linearGradient>
<linearGradient id="paint13_linear_3755_13789" x1="14.7818" y1="13.4565" x2="12.4649" y2="11.2956" gradientUnits="userSpaceOnUse">
<stop stop-color="#DC8758" stop-opacity="0"/>
<stop offset="0.2153" stop-color="#DD8654" stop-opacity="0.215"/>
<stop offset="0.4291" stop-color="#E28448" stop-opacity="0.429"/>
<stop offset="0.6424" stop-color="#EA8034" stop-opacity="0.642"/>
<stop offset="0.8543" stop-color="#F47B18" stop-opacity="0.854"/>
<stop offset="1" stop-color="#FE7701"/>
</linearGradient>
<linearGradient id="paint14_linear_3755_13789" x1="1.65666" y1="13.6872" x2="4.089" y2="13.6872" gradientUnits="userSpaceOnUse">
<stop stop-color="#EAF9FA"/>
<stop offset="1" stop-color="#B3DAFE"/>
</linearGradient>
<linearGradient id="paint15_linear_3755_13789" x1="3.03204" y1="13.6872" x2="6.34699" y2="13.6872" gradientUnits="userSpaceOnUse">
<stop stop-color="#7BACDF" stop-opacity="0"/>
<stop offset="1" stop-color="#7BACDF"/>
</linearGradient>
<linearGradient id="paint16_linear_3755_13789" x1="1.29038" y1="19.3361" x2="5.56711" y2="24.3412" gradientUnits="userSpaceOnUse">
<stop stop-color="#7BACDF" stop-opacity="0"/>
<stop offset="1" stop-color="#7BACDF"/>
</linearGradient>
<linearGradient id="paint17_linear_3755_13789" x1="3.30802" y1="21.6643" x2="0.723188" y2="18.8445" gradientUnits="userSpaceOnUse">
<stop stop-color="#7BACDF" stop-opacity="0"/>
<stop offset="1" stop-color="#7BACDF"/>
</linearGradient>
<linearGradient id="paint18_linear_3755_13789" x1="1.95689" y1="20.4835" x2="5.38481" y2="20.4835" gradientUnits="userSpaceOnUse">
<stop stop-color="#EAF9FA"/>
<stop offset="1" stop-color="#B3DAFE"/>
</linearGradient>
<linearGradient id="paint19_linear_3755_13789" x1="3.88444" y1="21.2933" x2="3.88444" y2="17.7433" gradientUnits="userSpaceOnUse">
<stop stop-color="#7BACDF" stop-opacity="0"/>
<stop offset="1" stop-color="#7BACDF"/>
</linearGradient>
<linearGradient id="paint20_linear_3755_13789" x1="20.7944" y1="17.0558" x2="22.285" y2="17.0558" gradientUnits="userSpaceOnUse">
<stop stop-color="#DC8758" stop-opacity="0"/>
<stop offset="0.2153" stop-color="#DD8654" stop-opacity="0.215"/>
<stop offset="0.4291" stop-color="#E28448" stop-opacity="0.429"/>
<stop offset="0.6424" stop-color="#EA8034" stop-opacity="0.642"/>
<stop offset="0.8543" stop-color="#F47B18" stop-opacity="0.854"/>
<stop offset="1" stop-color="#FE7701"/>
</linearGradient>
<linearGradient id="paint21_linear_3755_13789" x1="7.39889" y1="6.79825" x2="15.1555" y2="6.79825" gradientUnits="userSpaceOnUse">
<stop stop-color="#FD4755"/>
<stop offset="0.3362" stop-color="#E43F48"/>
<stop offset="1" stop-color="#A72B2B"/>
</linearGradient>
<linearGradient id="paint22_linear_3755_13789" x1="14.5711" y1="7.80519" x2="10.1092" y2="3.3432" gradientUnits="userSpaceOnUse">
<stop stop-color="#FD4755"/>
<stop offset="0.3362" stop-color="#E43F48"/>
<stop offset="1" stop-color="#A72B2B"/>
</linearGradient>
<linearGradient id="paint23_linear_3755_13789" x1="13.458" y1="7.95797" x2="15.3397" y2="9.48422" gradientUnits="userSpaceOnUse">
<stop stop-color="#A72B2B" stop-opacity="0"/>
<stop offset="1" stop-color="#481F05"/>
</linearGradient>
<linearGradient id="paint24_linear_3755_13789" x1="14.109" y1="7.06627" x2="16.5761" y2="7.44263" gradientUnits="userSpaceOnUse">
<stop stop-color="#A72B2B" stop-opacity="0"/>
<stop offset="1" stop-color="#481F05"/>
</linearGradient>
<linearGradient id="paint25_linear_3755_13789" x1="15.2545" y1="6.74954" x2="17.2462" y2="6.71795" gradientUnits="userSpaceOnUse">
<stop stop-color="#A72B2B" stop-opacity="0"/>
<stop offset="1" stop-color="#481F05"/>
</linearGradient>
<clipPath id="clip0_3755_13789">
<rect width="24" height="24" fill="white" transform="translate(0 0.652344)"/>
</clipPath>
</defs>
</svg>
