<svg width="24" height="25" viewBox="0 0 24 25" fill="none" xmlns="http://www.w3.org/2000/svg">
<g id="wedding-ring 3" clip-path="url(#clip0_3755_13360)">
<g id="Group">
<g id="Group_2">
<path id="Vector" d="M22.9992 4.0527L16.7889 1.96103C16.6439 1.91218 16.4844 1.93434 16.3582 2.02084L14.6056 3.22234C14.4037 3.3607 14.3275 3.6222 14.4233 3.84733L17.0524 10.0223C17.1947 10.3566 17.5968 10.492 17.9123 10.3119L23.7415 6.98578C23.954 6.86451 24.0515 6.61016 23.9745 6.37792L23.3059 4.36093C23.2577 4.21571 23.1441 4.10154 22.9992 4.0527Z" fill="url(#paint0_linear_3755_13360)"/>
<path id="Vector_2" d="M21.8086 3.65083L17.9804 2.36141C17.891 2.3313 17.7839 2.37111 17.6911 2.4689L16.4028 3.82678C16.2544 3.98316 16.1741 4.2433 16.2108 4.44852L17.2178 10.0771C17.2723 10.3818 17.5201 10.4653 17.7479 10.2556L21.9549 6.38316C22.1083 6.24198 22.2017 5.98626 22.1782 5.772L21.9739 3.91139C21.9592 3.77741 21.898 3.68094 21.8086 3.65083Z" fill="url(#paint1_linear_3755_13360)"/>
<path id="Vector_3" d="M23.9738 6.37792L23.3052 4.36093C23.2571 4.21571 23.1435 4.10154 22.9985 4.05274L16.7882 1.96103C16.6432 1.91218 16.4837 1.93434 16.3575 2.02084L14.6049 3.22234C14.5021 3.29274 14.4322 3.39514 14.4006 3.50832L23.9634 6.72917C24.0068 6.61999 24.013 6.49613 23.9738 6.37792Z" fill="url(#paint2_linear_3755_13360)"/>
<path id="Vector_4" d="M23.3059 4.36184C23.2577 4.21661 23.1441 4.10245 22.9992 4.05365L19.894 3.00781L17.4174 10.3609C17.5752 10.414 17.7545 10.4029 17.9123 10.3128L23.7415 6.98673C23.954 6.86546 24.0515 6.61111 23.9745 6.37887L23.3059 4.36184Z" fill="url(#paint3_linear_3755_13360)"/>
</g>
<path id="Vector_5" d="M22.2547 7.83048L19.1558 9.59895L17.9111 10.3091C17.5958 10.4893 17.1935 10.3538 17.0514 10.0197L16.5991 8.95707L15.2829 5.86577C15.5737 5.84083 15.8674 5.82812 16.1643 5.82812C18.442 5.82812 20.5488 6.57213 22.2547 7.83048Z" fill="url(#paint4_linear_3755_13360)"/>
<g id="Group_3">
<path id="Vector_6" d="M7.21486 1.95897L1.00319 4.04646C0.858151 4.09521 0.744504 4.20928 0.696268 4.35446L0.0262447 6.37102C-0.0509318 6.60326 0.0464329 6.85766 0.258904 6.97907L6.08582 10.3091C6.40126 10.4894 6.80333 10.3542 6.94592 10.0201L9.57919 3.84688C9.67519 3.6218 9.59914 3.36024 9.3974 3.22175L7.64554 2.01907C7.51937 1.93248 7.35989 1.91022 7.21486 1.95897Z" fill="url(#paint5_linear_3755_13360)"/>
<path id="Vector_7" d="M6.02358 2.3594L2.19445 3.64623C2.10503 3.67625 2.04376 3.77272 2.02894 3.9067L1.82339 5.76717C1.79972 5.98143 1.89299 6.23719 2.04626 6.37846L6.25068 10.2538C6.4783 10.4635 6.72616 10.3803 6.78085 10.0756L7.79162 4.44769C7.82847 4.24251 7.74833 3.98232 7.60009 3.82585L6.31271 2.46708C6.22009 2.36924 6.11299 2.32938 6.02358 2.3594Z" fill="url(#paint6_linear_3755_13360)"/>
<path id="Vector_8" d="M9.39736 3.22176L7.6455 2.01908C7.51938 1.93249 7.35985 1.91023 7.21486 1.95894L1.00319 4.04647C0.858157 4.09522 0.74451 4.20929 0.696275 4.35447L0.026251 6.37104C-0.0130432 6.48925 -0.00687846 6.61311 0.0364157 6.72233L9.60141 3.50788C9.56992 3.39471 9.50004 3.29226 9.39736 3.22176Z" fill="url(#paint7_linear_3755_13360)"/>
<path id="Vector_9" d="M7.64469 2.01908C7.51857 1.93249 7.35904 1.91023 7.21405 1.95894L4.10822 3.0027L6.57989 10.3575C6.73767 10.3044 6.87382 10.1871 6.94511 10.02L9.57838 3.84685C9.67438 3.62176 9.59833 3.36021 9.39659 3.22172L7.64469 2.01908Z" fill="url(#paint8_linear_3755_13360)"/>
</g>
<path id="Vector_10" d="M8.71809 5.86577L7.39951 8.95754L6.94633 10.0197C6.80374 10.3542 6.40186 10.4893 6.08609 10.3091L4.84421 9.59942L1.74774 7.82954C3.45315 6.57212 5.55904 5.82812 7.83574 5.82812C8.13315 5.82812 8.42727 5.84083 8.71809 5.86577Z" fill="url(#paint9_linear_3755_13360)"/>
<g id="Group_4">
<g id="Group_5">
<path id="Vector_11" d="M8.54068 7.57031C3.82378 7.57031 -3.05176e-05 11.3941 -3.05176e-05 16.111C-3.05176e-05 20.8279 3.82378 24.6517 8.54068 24.6517C13.2576 24.6517 17.0814 20.8279 17.0814 16.111C17.0814 11.3941 13.2576 7.57031 8.54068 7.57031ZM8.54068 22.0635C5.25319 22.0635 2.5882 19.3985 2.5882 16.111C2.5882 12.8235 5.25319 10.1585 8.54068 10.1585C11.8282 10.1585 14.4931 12.8235 14.4931 16.111C14.4931 19.3985 11.8282 22.0635 8.54068 22.0635Z" fill="url(#paint10_linear_3755_13360)"/>
<path id="Vector_12" d="M8.54063 8.92383C4.5699 8.92383 1.35098 12.1427 1.35098 16.1135C1.35098 20.0842 4.5699 23.3031 8.54063 23.3031C12.5114 23.3031 15.7303 20.0842 15.7303 16.1135C15.7303 12.1427 12.5114 8.92383 8.54063 8.92383ZM8.54063 22.0659C5.25315 22.0659 2.58816 19.401 2.58816 16.1135C2.58816 12.826 5.25315 10.161 8.54063 10.161C11.8281 10.161 14.4931 12.826 14.4931 16.1135C14.4931 19.401 11.8281 22.0659 8.54063 22.0659Z" fill="url(#paint11_linear_3755_13360)"/>
</g>
<g id="Group_6">
<path id="Vector_13" d="M14.1525 18.0977C13.3329 20.4061 11.1272 22.0638 8.54126 22.0638C5.95533 22.0638 3.74969 20.4061 2.93011 18.0977H0.234344C1.13209 21.8522 4.51562 24.652 8.54126 24.652C12.5669 24.652 15.9505 21.8522 16.8482 18.0977H14.1525Z" fill="url(#paint12_linear_3755_13360)"/>
</g>
<path id="Vector_14" d="M7.20032 21.9109V24.5469C7.63721 24.6161 8.08488 24.6524 8.54093 24.6524C9.96578 24.6524 11.31 24.3013 12.4922 23.6816L10.5314 21.7207C9.90865 21.9424 9.23886 22.0641 8.54093 22.0641C8.07999 22.0641 7.63142 22.0105 7.20032 21.9109Z" fill="url(#paint13_linear_3755_13360)"/>
<g id="Group_7">
<g id="Group_8">
<path id="Vector_15" d="M15.4598 7.57031C14.2287 7.57031 13.0579 7.83102 12.0005 8.30019C13.0264 8.75478 13.9454 9.40608 14.7106 10.2056C14.9558 10.1745 15.2061 10.1585 15.4598 10.1585C18.7473 10.1585 21.4122 12.8235 21.4122 16.111C21.4122 19.3985 18.7473 22.0635 15.4598 22.0635C15.2061 22.0635 14.9558 22.0475 14.7106 22.0164C13.7082 21.8908 12.7835 21.5157 12.0005 20.9553C10.4908 19.8757 9.5073 18.1082 9.5073 16.111C9.5073 14.1138 10.4908 12.3463 12.0005 11.2668C11.2174 10.7063 10.2927 10.3313 9.29036 10.2056C7.82166 11.7393 6.91907 13.8202 6.91907 16.111C6.91907 18.4018 7.82166 20.4828 9.29036 22.0164C10.0555 22.816 10.9746 23.4673 12.0005 23.9218C13.0579 24.391 14.2287 24.6517 15.4598 24.6517C20.1765 24.6517 24.0005 20.8277 24.0005 16.111C24.0005 11.3943 20.1765 7.57031 15.4598 7.57031Z" fill="url(#paint14_linear_3755_13360)"/>
<path id="Vector_16" d="M15.4597 8.92383C14.7929 8.92383 14.1477 9.01465 13.535 9.18453C13.9576 9.48948 14.3515 9.83253 14.7106 10.2081C14.9557 10.177 15.2061 10.161 15.4597 10.161C18.7473 10.161 21.4122 12.8259 21.4122 16.1135C21.4122 19.401 18.7473 22.0659 15.4597 22.0659C15.2061 22.0659 14.9557 22.0499 14.7106 22.0189C13.7082 21.8932 12.7835 21.5182 12.0004 20.9577C10.4908 19.8782 9.50726 18.1107 9.50726 16.1135C9.50726 14.1163 10.4908 12.3488 12.0004 11.2692C11.6376 11.0095 11.2442 10.7892 10.8263 10.6156C9.26302 11.9347 8.27008 13.9078 8.27008 16.1135C8.27008 18.3191 9.26302 20.2923 10.8263 21.6114C11.6051 22.2683 12.5251 22.7629 13.535 23.0424C14.1477 23.2123 14.7929 23.3031 15.4597 23.3031C19.4306 23.3031 22.6494 20.0843 22.6494 16.1135C22.6494 12.1427 19.4306 8.92383 15.4597 8.92383Z" fill="url(#paint15_linear_3755_13360)"/>
</g>
<path id="Vector_17" d="M21.0715 18.0977C20.2519 20.4061 18.0463 22.0638 15.4604 22.0638C12.8744 22.0638 10.6687 20.4061 9.84916 18.0977H7.15344C8.05114 21.8522 11.4347 24.652 15.4604 24.652C19.486 24.652 22.8696 21.8522 23.7673 18.0977H21.0715Z" fill="url(#paint16_linear_3755_13360)"/>
</g>
<path id="Vector_18" d="M12 11.2686C11.2174 10.7081 10.2941 10.3321 9.29462 10.2051L11.1248 12.0353C11.3909 11.7525 11.6837 11.4953 12 11.2686Z" fill="url(#paint17_linear_3755_13360)"/>
<path id="Vector_19" d="M12 8.30255C13.023 8.75761 13.9411 9.40796 14.7054 10.2061C14.9524 10.1745 15.2042 10.1585 15.4593 10.1585C16.1253 10.1585 16.7662 10.2685 17.3647 10.4713V7.78481C16.7518 7.64462 16.114 7.57031 15.4593 7.57031C14.2287 7.57031 13.0579 7.83196 12 8.30255Z" fill="url(#paint18_linear_3755_13360)"/>
</g>
<path id="Vector_20" d="M12.0005 4.69479C11.9123 4.69479 11.8239 4.6739 11.7449 4.63437C11.5062 4.51488 11.0401 4.25874 10.6004 3.88533C10.0284 3.39954 9.68929 2.87813 9.59264 2.3355C9.51753 1.91399 9.62473 1.48373 9.88675 1.15498C10.1294 0.850508 10.4732 0.672626 10.8549 0.653991C10.8774 0.652908 10.9001 0.652344 10.9225 0.652344C11.2801 0.652344 11.6177 0.790179 11.8732 1.04044C11.9193 1.08566 11.9618 1.13361 12.0005 1.18397C12.0393 1.13361 12.0818 1.08566 12.128 1.04044C12.3833 0.790179 12.721 0.652344 13.0786 0.652344C13.101 0.652344 13.1237 0.652908 13.1461 0.653991C13.5278 0.672579 13.8717 0.850508 14.1144 1.15498C14.3764 1.48373 14.4836 1.91399 14.4085 2.3355C14.3118 2.87808 13.9728 3.3995 13.4008 3.88528C12.9611 4.2587 12.4949 4.51488 12.2562 4.63432C12.1772 4.6739 12.0888 4.69479 12.0005 4.69479Z" fill="url(#paint19_linear_3755_13360)"/>
</g>
</g>
<defs>
<linearGradient id="paint0_linear_3755_13360" x1="17.6133" y1="2.01902" x2="22.4795" y2="11.821" gradientUnits="userSpaceOnUse">
<stop stop-color="#18CEFB"/>
<stop offset="0.8231" stop-color="#0590FC"/>
<stop offset="1" stop-color="#0182FC"/>
</linearGradient>
<linearGradient id="paint1_linear_3755_13360" x1="20.685" y1="8.07056" x2="13.3785" y2="0.851765" gradientUnits="userSpaceOnUse">
<stop stop-color="#18CEFB"/>
<stop offset="0.8231" stop-color="#0590FC"/>
<stop offset="1" stop-color="#0182FC"/>
</linearGradient>
<linearGradient id="paint2_linear_3755_13360" x1="19.2311" y1="2.79809" x2="19.1392" y2="9.89543" gradientUnits="userSpaceOnUse">
<stop stop-color="#0182FC" stop-opacity="0"/>
<stop offset="1" stop-color="#0268B4"/>
</linearGradient>
<linearGradient id="paint3_linear_3755_13360" x1="20.4273" y1="7.34663" x2="14.6025" y2="3.47292" gradientUnits="userSpaceOnUse">
<stop stop-color="#0182FC" stop-opacity="0"/>
<stop offset="1" stop-color="#0268B4"/>
</linearGradient>
<linearGradient id="paint4_linear_3755_13360" x1="18.7734" y1="6.8366" x2="18.0676" y2="8.57777" gradientUnits="userSpaceOnUse">
<stop stop-color="#0182FC" stop-opacity="0"/>
<stop offset="0.2089" stop-color="#0180F6" stop-opacity="0.209"/>
<stop offset="0.4803" stop-color="#017AE6" stop-opacity="0.48"/>
<stop offset="0.7847" stop-color="#0171CB" stop-opacity="0.785"/>
<stop offset="1" stop-color="#0268B4"/>
</linearGradient>
<linearGradient id="paint5_linear_3755_13360" x1="1.68573" y1="3.58544" x2="11.4877" y2="8.45166" gradientUnits="userSpaceOnUse">
<stop stop-color="#18CEFB"/>
<stop offset="0.8231" stop-color="#0590FC"/>
<stop offset="1" stop-color="#0182FC"/>
</linearGradient>
<linearGradient id="paint6_linear_3755_13360" x1="7.79108" y1="6.54997" x2="-2.39316" y2="5.21678" gradientUnits="userSpaceOnUse">
<stop stop-color="#18CEFB"/>
<stop offset="0.8231" stop-color="#0590FC"/>
<stop offset="1" stop-color="#0182FC"/>
</linearGradient>
<linearGradient id="paint7_linear_3755_13360" x1="3.44592" y1="3.22761" x2="7.66341" y2="8.93674" gradientUnits="userSpaceOnUse">
<stop stop-color="#0182FC" stop-opacity="0"/>
<stop offset="1" stop-color="#0268B4"/>
</linearGradient>
<linearGradient id="paint8_linear_3755_13360" x1="7.14669" y1="6.12737" x2="0.164992" y2="6.56308" gradientUnits="userSpaceOnUse">
<stop stop-color="#0182FC" stop-opacity="0"/>
<stop offset="1" stop-color="#0268B4"/>
</linearGradient>
<linearGradient id="paint9_linear_3755_13360" x1="5.24948" y1="6.89674" x2="5.93184" y2="8.92027" gradientUnits="userSpaceOnUse">
<stop stop-color="#0182FC" stop-opacity="0"/>
<stop offset="1" stop-color="#0268B4"/>
</linearGradient>
<linearGradient id="paint10_linear_3755_13360" x1="3.38773" y1="10.9581" x2="14.4833" y2="22.0537" gradientUnits="userSpaceOnUse">
<stop stop-color="#FFE177"/>
<stop offset="1" stop-color="#FE9738"/>
</linearGradient>
<linearGradient id="paint11_linear_3755_13360" x1="15.5289" y1="23.1017" x2="2.76336" y2="10.3362" gradientUnits="userSpaceOnUse">
<stop stop-color="#FFE177"/>
<stop offset="1" stop-color="#FE9738"/>
</linearGradient>
<linearGradient id="paint12_linear_3755_13360" x1="8.54126" y1="20.2858" x2="8.54126" y2="24.4717" gradientUnits="userSpaceOnUse">
<stop stop-color="#FE9738" stop-opacity="0"/>
<stop offset="1" stop-color="#FE7701"/>
</linearGradient>
<linearGradient id="paint13_linear_3755_13360" x1="8.46121" y1="23.5843" x2="12.1005" y2="21.5137" gradientUnits="userSpaceOnUse">
<stop stop-color="#F82814" stop-opacity="0"/>
<stop offset="1" stop-color="#C0272D"/>
</linearGradient>
<linearGradient id="paint14_linear_3755_13360" x1="10.3086" y1="10.9596" x2="21.4025" y2="22.0535" gradientUnits="userSpaceOnUse">
<stop stop-color="#FFE177"/>
<stop offset="1" stop-color="#FE9738"/>
</linearGradient>
<linearGradient id="paint15_linear_3755_13360" x1="22.448" y1="23.1018" x2="9.68236" y2="10.3361" gradientUnits="userSpaceOnUse">
<stop stop-color="#FFE177"/>
<stop offset="1" stop-color="#FE9738"/>
</linearGradient>
<linearGradient id="paint16_linear_3755_13360" x1="15.4604" y1="20.2858" x2="15.4604" y2="24.4717" gradientUnits="userSpaceOnUse">
<stop stop-color="#FE9738" stop-opacity="0"/>
<stop offset="1" stop-color="#FE7701"/>
</linearGradient>
<linearGradient id="paint17_linear_3755_13360" x1="11.1131" y1="12.1204" x2="10.3131" y2="9.7439" gradientUnits="userSpaceOnUse">
<stop stop-color="#FE9738" stop-opacity="0"/>
<stop offset="1" stop-color="#FE7701"/>
</linearGradient>
<linearGradient id="paint18_linear_3755_13360" x1="15.5824" y1="8.40965" x2="13.9354" y2="10.1979" gradientUnits="userSpaceOnUse">
<stop stop-color="#FE9738" stop-opacity="0"/>
<stop offset="1" stop-color="#FE7701"/>
</linearGradient>
<linearGradient id="paint19_linear_3755_13360" x1="11.5994" y1="1.6338" x2="13.2992" y2="3.75611" gradientUnits="userSpaceOnUse">
<stop stop-color="#FE646F"/>
<stop offset="1" stop-color="#FB2B3A"/>
</linearGradient>
<clipPath id="clip0_3755_13360">
<rect width="24" height="24" fill="white" transform="translate(0 0.652344)"/>
</clipPath>
</defs>
</svg>
