<svg width="24" height="25" viewBox="0 0 24 25" fill="none" xmlns="http://www.w3.org/2000/svg">
<g clip-path="url(#clip0_3755_13208)">
<path d="M22.4896 6.67554C19.6908 12.1602 16.7508 17.5761 13.6784 22.9144C13.4649 23.285 13.0061 23.4226 12.6479 23.2249L5.07197 19.0232C4.70668 18.8202 4.58668 18.3438 4.80374 17.9661C7.86374 12.6491 10.7896 7.25612 13.5779 1.79436C13.779 1.39906 14.2537 1.24201 14.6243 1.44848L22.2002 5.65024C22.5514 5.84612 22.6802 6.29965 22.4896 6.67554Z" fill="#CEDEF5"/>
<path d="M5.07008 19.0216L6.30891 19.7081C9.6195 13.9198 12.7995 8.05925 15.8471 2.12808L14.6242 1.45043C14.2536 1.24396 13.7807 1.40102 13.5795 1.79631C10.7895 7.25808 7.86185 12.651 4.80361 17.9663C4.58479 18.3422 4.70655 18.8187 5.07008 19.0216Z" fill="#4478E5"/>
<path d="M12.9054 11.017C12.9054 11.017 12.9054 11.0152 12.9071 11.0152L16.4736 4.41169C16.5248 4.31816 16.4895 4.20169 16.3959 4.15051C16.3024 4.09934 16.1877 4.13463 16.1365 4.2264C16.1365 4.2264 16.1365 4.22816 16.1348 4.22816L12.5665 10.8317C12.5154 10.9252 12.5507 11.0417 12.6442 11.0929C12.7377 11.144 12.8542 11.1105 12.9054 11.017Z" fill="#4478E5"/>
<path d="M14.243 11.767C14.243 11.767 14.243 11.7652 14.2447 11.7652L17.8112 5.16169C17.8624 5.06816 17.8271 4.95169 17.7335 4.90051C17.64 4.84934 17.5253 4.88463 17.4741 4.9764C17.4741 4.9764 17.4741 4.97816 17.4724 4.97816L13.9059 11.5817C13.8547 11.6752 13.89 11.7917 13.9835 11.8429C14.0771 11.894 14.1918 11.8587 14.243 11.767Z" fill="#4478E5"/>
<path d="M15.5823 12.5182C15.5823 12.5182 15.5823 12.5164 15.5841 12.5164L19.1506 5.91286C19.2017 5.81933 19.1665 5.70286 19.0729 5.65168C18.9794 5.60227 18.8647 5.6358 18.8135 5.72757C18.8135 5.72757 18.8135 5.72933 18.8117 5.72933L15.2435 12.3329C15.1923 12.4264 15.2276 12.5429 15.3212 12.594C15.4147 12.6435 15.5312 12.6099 15.5823 12.5182Z" fill="#4478E5"/>
<path d="M16.92 13.2642C16.92 13.2642 16.92 13.2625 16.9218 13.2625L20.4883 6.65895C20.5394 6.56543 20.5042 6.44895 20.4106 6.39778C20.3171 6.34837 20.2024 6.3819 20.1512 6.47366C20.1512 6.47366 20.1512 6.47543 20.1494 6.47543L16.5812 13.079C16.53 13.1725 16.5653 13.289 16.6589 13.3401C16.7524 13.3913 16.8689 13.3578 16.92 13.2642Z" fill="#4478E5"/>
<path d="M12.1377 12.5207C12.1889 12.429 12.1571 12.3125 12.0636 12.2596C11.9718 12.2066 11.8536 12.2402 11.8006 12.3319L10.6783 14.3119C10.6271 14.4019 10.6589 14.5219 10.7506 14.5749C10.8424 14.6278 10.9606 14.5943 11.0136 14.5025L12.1377 12.5207C12.1377 12.5225 12.1377 12.5225 12.1377 12.5207Z" fill="#4478E5"/>
<path d="M13.4895 13.2453C13.5406 13.1536 13.5089 13.0371 13.4153 12.9842C13.3236 12.9312 13.2053 12.9648 13.1524 13.0565L12.0301 15.0365V15.0383C11.9789 15.1301 12.0106 15.2465 12.1042 15.2995C12.1959 15.3524 12.3142 15.3189 12.3671 15.2271L13.4895 13.2453Z" fill="#4478E5"/>
<path d="M14.843 13.968C14.8942 13.8762 14.8624 13.7598 14.7689 13.7068C14.6771 13.6539 14.5589 13.6874 14.5059 13.7792L13.3836 15.7592V15.7609C13.3324 15.8527 13.3642 15.9692 13.4577 16.0221C13.5494 16.0751 13.6677 16.0415 13.7206 15.9498L14.843 13.968Z" fill="#4478E5"/>
<path d="M16.1947 14.6926C16.2459 14.6008 16.2141 14.4844 16.1206 14.4314C16.0288 14.3785 15.9106 14.412 15.8577 14.5038L14.7353 16.4838V16.4856C14.6841 16.5773 14.7159 16.6938 14.8094 16.7467C14.9012 16.7997 15.0194 16.7661 15.0724 16.6744L16.1947 14.6926Z" fill="#4478E5"/>
<path opacity="0.05" d="M5.31365 18.5824L12.8895 22.7842C13.0095 22.8512 13.1684 22.7965 13.2442 22.6642C14.2131 20.9771 15.1837 19.2636 16.126 17.5642C18.1537 13.9095 20.1425 10.1665 22.0431 6.44476C22.1119 6.31064 22.0695 6.14829 21.9548 6.08476L21.5048 5.83594C19.6537 9.46241 17.7125 13.1012 15.7413 16.6554C15.1113 17.7918 14.4707 18.9336 13.8248 20.0683C13.2866 21.0124 12.1025 21.3671 11.1337 20.873L5.39483 17.9348C5.34012 18.0283 5.28895 18.1183 5.23601 18.2118C5.15659 18.353 5.19542 18.5171 5.31365 18.5824Z" fill="black"/>
<path d="M10.7489 9.94667C10.7489 9.94667 10.7489 9.94491 10.7507 9.94491L14.3172 3.34138C14.3683 3.24785 14.3331 3.13138 14.2395 3.0802C14.146 3.02902 14.0313 3.06432 13.9801 3.15608C13.9801 3.15608 13.9801 3.15785 13.9783 3.15785L10.4119 9.76138C10.3607 9.85491 10.396 9.97138 10.4895 10.0226C10.583 10.0737 10.6978 10.0402 10.7489 9.94667Z" fill="white"/>
<path d="M9.95653 11.3118C10.0077 11.22 9.97594 11.1035 9.88241 11.0506C9.79065 10.9976 9.67241 11.0312 9.61947 11.1229L8.49712 13.1029C8.44594 13.1929 8.47771 13.3129 8.56947 13.3659C8.66124 13.4188 8.77947 13.3853 8.83241 13.2935L9.95653 11.3118Z" fill="white"/>
<path d="M8.01723 14.8098C8.06841 14.718 8.03664 14.6016 7.94311 14.5486C7.85135 14.4957 7.73311 14.5292 7.68017 14.621L6.55782 16.601C6.50664 16.691 6.53841 16.811 6.63017 16.8639C6.72194 16.9169 6.84017 16.8833 6.89311 16.7916L8.01723 14.8098C8.01547 14.8116 8.01547 14.8116 8.01723 14.8098Z" fill="white"/>
<path opacity="0.15" d="M5.07005 19.0213L5.32064 19.1607C6.44829 18.4619 7.57064 17.7595 8.58711 16.9089C9.14829 16.4413 9.71652 15.9119 10.4348 15.776C11.573 15.5625 12.6565 16.4077 13.8142 16.436C14.9048 16.4607 15.8965 15.7407 16.5336 14.8548C17.1689 13.9654 17.5289 12.9172 17.963 11.9166C18.3953 10.9142 18.9477 9.91363 19.8389 9.28539C20.2959 8.96245 20.8642 8.76657 21.4218 8.74716C21.7783 8.05716 22.1365 7.36716 22.4877 6.67539C22.6801 6.29951 22.5495 5.84774 22.1965 5.65186L14.6242 1.4501C14.2536 1.24363 13.7806 1.40245 13.5795 1.79598C10.7895 7.25774 7.86182 12.6489 4.80358 17.9642C4.58476 18.3436 4.70652 18.8183 5.07005 19.0213Z" fill="white"/>
<path opacity="0.15" d="M6.89301 14.2866C8.46889 13.1642 10.4171 12.5201 12.293 11.943C12.9565 11.7401 13.6448 11.523 14.1548 11.0483C14.9718 10.286 15.1536 9.0101 15.983 8.25657C16.8124 7.50127 18.0512 7.47127 19.1171 7.11127C20.1054 6.77598 20.9701 6.13716 21.6724 5.35892L14.6242 1.4501C14.2536 1.24363 13.7807 1.40245 13.5795 1.79598C11.4301 6.00304 9.20301 10.166 6.89301 14.2866Z" fill="white"/>
<path opacity="0.15" d="M5.07008 19.0213L9.2595 21.3454C9.23479 20.8865 9.27008 20.4207 9.36008 19.9707C9.58067 18.8571 10.1118 17.8265 10.7718 16.9054C11.2624 16.2171 11.8413 15.5536 12.0318 14.7313C12.3213 13.4889 11.6524 12.2236 11.693 10.9495C11.7195 10.0989 12.0583 9.29243 12.3177 8.48067C12.893 6.65596 13.0589 4.75184 13.0483 2.83008C10.4207 7.9389 7.6695 12.9842 4.80361 17.9642C4.58479 18.3436 4.70655 18.8183 5.07008 19.0213Z" fill="white"/>
<path d="M3.36292 23.8436H13.9484C14.7501 23.8436 15.4 23.1353 15.4 22.223V8.98298C15.4 8.24808 14.7501 7.65234 13.9484 7.65234H3.36292C3.16249 7.65234 3 7.80129 3 7.98502V23.2209C3.00004 23.4046 3.16249 23.8436 3.36292 23.8436Z" fill="url(#paint0_linear_3755_13208)"/>
<path d="M13.9484 23.5533H3.36292C3.16249 23.5533 3 23.4043 3 23.2206V23.8194C3 24.0031 3.16249 24.1521 3.36292 24.1521H13.9484C14.7501 24.1521 15.4 23.5564 15.4 22.8215V22.2227C15.4 22.9576 14.7501 23.5533 13.9484 23.5533Z" fill="#CC4C61"/>
<mask id="mask0_3755_13208" style="mask-type:luminance" maskUnits="userSpaceOnUse" x="4" y="8" width="10" height="15">
<path d="M4.60001 8.65234H13.6V22.1523H4.60001V8.65234Z" fill="white"/>
<path d="M9.09869 14.0555C9.84427 14.0555 10.4487 13.4511 10.4487 12.7055C10.4487 11.9599 9.84427 11.3555 9.09869 11.3555C8.3531 11.3555 7.74869 11.9599 7.74869 12.7055C7.74869 13.4511 8.3531 14.0555 9.09869 14.0555Z" fill="black"/>
<path d="M9.09869 17.0594C9.22295 17.0594 9.32369 16.9586 9.32369 16.8344C9.32369 16.7101 9.22295 16.6094 9.09869 16.6094C8.97442 16.6094 8.87369 16.7101 8.87369 16.8344C8.87369 16.9586 8.97442 17.0594 9.09869 17.0594Z" fill="black"/>
<path d="M9.09869 18.2508C9.22295 18.2508 9.32369 18.15 9.32369 18.0258C9.32369 17.9015 9.22295 17.8008 9.09869 17.8008C8.97442 17.8008 8.87369 17.9015 8.87369 18.0258C8.87369 18.15 8.97442 18.2508 9.09869 18.2508Z" fill="black"/>
<path d="M9.09774 16.1738C9.27378 16.1738 9.44261 16.2438 9.56708 16.3682C9.69156 16.4927 9.76149 16.6615 9.76149 16.8376C9.76149 17.0136 9.69156 17.1824 9.56708 17.3069C9.44261 17.4314 9.27378 17.5013 9.09774 17.5013C8.95751 17.5013 8.82302 17.557 8.72386 17.6562C8.6247 17.7554 8.56899 17.8898 8.56899 18.0301C8.56899 18.1703 8.6247 18.3048 8.72386 18.404C8.82302 18.5031 8.95751 18.5588 9.09774 18.5588V18.6938C8.9217 18.6938 8.75288 18.6239 8.6284 18.4994C8.50392 18.3749 8.43399 18.2061 8.43399 18.0301C8.43399 17.854 8.50392 17.6852 8.6284 17.5607C8.75288 17.4363 8.9217 17.3663 9.09774 17.3663C9.23797 17.3663 9.37246 17.3106 9.47162 17.2115C9.57078 17.1123 9.62649 16.9778 9.62649 16.8376C9.62649 16.6973 9.57078 16.5629 9.47162 16.4637C9.37246 16.3645 9.23797 16.3088 9.09774 16.3088V16.1738Z" fill="black"/>
</mask>
<g mask="url(#mask0_3755_13208)">
<path d="M9.10093 14.5023C9.78439 14.5023 10.3384 13.9483 10.3384 13.2648C10.3384 12.5814 9.78439 12.0273 9.10093 12.0273C8.41748 12.0273 7.86343 12.5814 7.86343 13.2648C7.86343 13.9483 8.41748 14.5023 9.10093 14.5023Z" fill="url(#paint1_linear_3755_13208)"/>
</g>
<path d="M9.10047 13.8273C9.59753 13.8273 10.0005 13.4244 10.0005 12.9273C10.0005 12.4303 9.59753 12.0273 9.10047 12.0273C8.60341 12.0273 8.20047 12.4303 8.20047 12.9273C8.20047 13.4244 8.60341 13.8273 9.10047 13.8273Z" fill="url(#paint2_linear_3755_13208)"/>
<path d="M9.19412 10.0022C9.0823 10.053 9.04051 10.1445 9.03151 10.2356C9.02589 10.3123 9.05975 10.3987 9.06313 10.4738C9.06313 10.6029 8.92952 10.6454 8.92952 10.8297C8.92952 10.8931 8.98802 10.9628 8.98802 11.1272C8.9779 11.2135 8.92975 11.233 8.87552 11.2397C8.84568 11.2397 8.81707 11.2279 8.79597 11.2068C8.77487 11.1857 8.76302 11.1571 8.76302 11.1272C8.7631 11.0984 8.77426 11.0707 8.79418 11.0498C8.79773 11.0458 8.80157 11.0421 8.80566 11.0386C8.83131 11.0127 8.86652 11.0027 8.8663 10.9344C8.8663 10.8993 8.84357 10.8674 8.82186 10.8052C8.80138 10.7449 8.81623 10.6441 8.86495 10.5846C8.7862 10.615 8.73766 10.6905 8.71291 10.7582C8.68681 10.8414 8.70954 10.8894 8.67376 10.9586C8.65194 11.0033 8.62595 11.0219 8.60131 11.0593C8.57218 11.1 8.53798 11.1952 8.53798 11.2394C8.53798 11.3886 8.59724 11.5317 8.70273 11.6372C8.80822 11.7427 8.95129 11.8019 9.10048 11.8019C9.24966 11.8019 9.39273 11.7427 9.49822 11.6372C9.60371 11.5317 9.66298 11.3886 9.66298 11.2394C9.66298 11.1952 9.62923 11.1 9.60009 11.0593C9.57545 11.0219 9.54901 11.0033 9.52719 10.9586C9.49186 10.8894 9.51459 10.8414 9.48849 10.7582C9.46374 10.6905 9.41514 10.615 9.33643 10.5846C9.38515 10.6441 9.4 10.7449 9.37952 10.8052C9.3577 10.8673 9.33475 10.8993 9.33475 10.9344C9.33475 11.0027 9.36973 11.0127 9.39538 11.0386C9.39947 11.0421 9.40331 11.0458 9.40686 11.0498C9.42678 11.0707 9.43794 11.0984 9.43802 11.1272C9.43802 11.1571 9.42617 11.1857 9.40507 11.2068C9.38397 11.2279 9.35536 11.2397 9.32552 11.2397C9.26331 11.2319 9.21865 11.2028 9.21302 11.1272C9.21302 10.9106 9.30572 10.8968 9.30572 10.7366C9.30572 10.5077 9.1005 10.3994 9.1005 10.2321C9.1005 10.1754 9.11377 10.0787 9.1941 10.002L9.19412 10.0022ZM6.62454 14.7272H7.74954V20.1272H6.62454V14.7272ZM10.4495 14.7272H11.5745V20.1272H10.4495V14.7272ZM7.97454 14.7272H10.2245L9.09954 15.4022L7.97454 14.7272ZM7.97454 15.6272H10.2245V16.0772H7.97454V15.6272ZM7.97454 18.7772H10.2245V19.2272H7.97454V18.7772ZM7.97454 19.4522H10.2245L9.09954 20.1272L7.97454 19.4522Z" fill="url(#paint3_linear_3755_13208)"/>
<mask id="mask1_3755_13208" style="mask-type:luminance" maskUnits="userSpaceOnUse" x="4" y="8" width="10" height="15">
<path d="M4.60001 8.65234H13.6V22.1523H4.60001V8.65234Z" fill="white"/>
<path d="M9.09869 14.0555C9.84427 14.0555 10.4487 13.4511 10.4487 12.7055C10.4487 11.9599 9.84427 11.3555 9.09869 11.3555C8.3531 11.3555 7.74869 11.9599 7.74869 12.7055C7.74869 13.4511 8.3531 14.0555 9.09869 14.0555Z" fill="black"/>
<path d="M9.09869 17.0594C9.22295 17.0594 9.32369 16.9586 9.32369 16.8344C9.32369 16.7101 9.22295 16.6094 9.09869 16.6094C8.97442 16.6094 8.87369 16.7101 8.87369 16.8344C8.87369 16.9586 8.97442 17.0594 9.09869 17.0594Z" fill="black"/>
<path d="M9.09869 18.2508C9.22295 18.2508 9.32369 18.15 9.32369 18.0258C9.32369 17.9015 9.22295 17.8008 9.09869 17.8008C8.97442 17.8008 8.87369 17.9015 8.87369 18.0258C8.87369 18.15 8.97442 18.2508 9.09869 18.2508Z" fill="black"/>
<path d="M9.09774 16.1738C9.27378 16.1738 9.44261 16.2438 9.56708 16.3682C9.69156 16.4927 9.76149 16.6615 9.76149 16.8376C9.76149 17.0136 9.69156 17.1824 9.56708 17.3069C9.44261 17.4314 9.27378 17.5013 9.09774 17.5013C8.95751 17.5013 8.82302 17.557 8.72386 17.6562C8.6247 17.7554 8.56899 17.8898 8.56899 18.0301C8.56899 18.1703 8.6247 18.3048 8.72386 18.404C8.82302 18.5031 8.95751 18.5588 9.09774 18.5588V18.6938C8.9217 18.6938 8.75288 18.6239 8.6284 18.4994C8.50392 18.3749 8.43399 18.2061 8.43399 18.0301C8.43399 17.854 8.50392 17.6852 8.6284 17.5607C8.75288 17.4363 8.9217 17.3663 9.09774 17.3663C9.23797 17.3663 9.37246 17.3106 9.47162 17.2115C9.57078 17.1123 9.62649 16.9778 9.62649 16.8376C9.62649 16.6973 9.57078 16.5629 9.47162 16.4637C9.37246 16.3645 9.23797 16.3088 9.09774 16.3088V16.1738Z" fill="black"/>
</mask>
<g mask="url(#mask1_3755_13208)">
<path d="M9.10001 18.5547C9.72133 18.5547 10.225 18.051 10.225 17.4297C10.225 16.8084 9.72133 16.3047 9.10001 16.3047C8.47869 16.3047 7.97501 16.8084 7.97501 17.4297C7.97501 18.051 8.47869 18.5547 9.10001 18.5547Z" fill="url(#paint4_linear_3755_13208)"/>
</g>
<path d="M14.6617 23.5389C14.6617 23.4074 14.5454 23.3008 14.402 23.3008H8.05968C7.91621 23.3008 7.79996 23.4074 7.79996 23.5389C7.79996 23.6703 7.91624 23.7769 8.05968 23.7769H14.402C14.5455 23.7769 14.6617 23.6703 14.6617 23.5389Z" fill="#EDF3FC"/>
<path d="M18.7569 17.198C18.5364 17.9796 18.1534 18.7087 17.864 19.4699C17.5764 20.2311 17.3787 21.055 17.5464 21.8483H15.3546C15.5222 21.055 15.3246 20.2311 15.0369 19.4699C14.7475 18.7087 14.3646 17.9796 14.144 17.198C13.9234 16.4165 13.8793 15.5521 14.2499 14.8246C14.5693 14.2021 15.614 13.6523 16.4487 13.6523C17.2922 13.6523 18.2752 14.0989 18.6475 14.8246C19.0216 15.5521 18.9775 16.4165 18.7569 17.198Z" fill="#FF8A27"/>
<path opacity="0.1" d="M18.5356 17.2159C18.3962 17.7082 18.1968 18.1751 17.9815 18.6673C17.8615 18.9464 17.7362 19.2374 17.625 19.5284C17.2968 20.3996 17.1662 21.127 17.2315 21.7816H16.7585C16.695 21.127 16.8238 20.3996 17.1521 19.5284C17.2632 19.2374 17.3885 18.9464 17.5103 18.6673C17.7238 18.1751 17.9232 17.7082 18.0626 17.2159C18.2338 16.6086 18.3573 15.7306 17.9744 14.9795C17.6991 14.445 16.9791 14.0288 16.2344 13.9527C16.3121 13.9426 16.3879 13.9375 16.4603 13.9375C17.2879 13.9375 18.1421 14.3858 18.4473 14.9795C18.8303 15.7306 18.7068 16.6103 18.5356 17.2159Z" fill="black"/>
<path d="M21.0087 22.7461L11.8322 22.7799C11.7316 22.7799 11.6504 22.8577 11.6504 22.9542V23.6156C11.6504 23.9116 11.901 24.1518 12.2116 24.1518L20.6345 24.1214C20.9416 24.1197 21.1904 23.8812 21.1904 23.5851V22.9203C21.1922 22.8239 21.1092 22.7461 21.0087 22.7461Z" fill="#EF6820"/>
<path d="M11.0141 23.3428C11 23.1719 10.9965 22.9994 11.0036 22.8285C11.0265 22.2381 11.5347 21.7695 12.1506 21.7695H20.6936C21.3112 21.7695 21.8194 22.2364 21.8406 22.8285C21.8477 22.9994 21.8441 23.1719 21.83 23.3428C21.8159 23.5204 21.6624 23.6574 21.4771 23.6574H11.3671C11.1818 23.6574 11.0283 23.5187 11.0141 23.3428Z" fill="url(#paint5_linear_3755_13208)"/>
<path opacity="0.1" d="M21.7414 23.3358C21.7308 23.4694 21.6143 23.5743 21.4767 23.5743H11.3667C11.2361 23.5743 11.1231 23.4796 11.1055 23.3544C11.1161 23.3578 11.1284 23.3578 11.1408 23.3578H20.792C21.2014 23.3578 21.5402 23.0364 21.5279 22.6439C21.5279 22.6304 21.5279 22.6168 21.5261 22.6016C21.5173 22.3986 21.4467 22.2125 21.3302 22.0586C21.5773 22.2345 21.7396 22.5136 21.752 22.8317C21.759 22.9991 21.7555 23.17 21.7414 23.3358Z" fill="black"/>
</g>
<defs>
<linearGradient id="paint0_linear_3755_13208" x1="9.2" y1="7.65234" x2="9.2" y2="23.8436" gradientUnits="userSpaceOnUse">
<stop stop-color="#CC4C61"/>
<stop offset="1" stop-color="#CC0021"/>
</linearGradient>
<linearGradient id="paint1_linear_3755_13208" x1="9.10093" y1="12.0273" x2="9.10093" y2="14.5023" gradientUnits="userSpaceOnUse">
<stop stop-color="#F1CD65"/>
<stop offset="1" stop-color="white"/>
</linearGradient>
<linearGradient id="paint2_linear_3755_13208" x1="9.10047" y1="12.0273" x2="9.10047" y2="13.8273" gradientUnits="userSpaceOnUse">
<stop stop-color="#F1CD65"/>
<stop offset="1" stop-color="white"/>
</linearGradient>
<linearGradient id="paint3_linear_3755_13208" x1="9.09954" y1="10.002" x2="9.09954" y2="20.1272" gradientUnits="userSpaceOnUse">
<stop stop-color="#F1CD65"/>
<stop offset="1" stop-color="white"/>
</linearGradient>
<linearGradient id="paint4_linear_3755_13208" x1="9.10001" y1="16.3047" x2="9.10001" y2="18.5547" gradientUnits="userSpaceOnUse">
<stop stop-color="#F1CD65"/>
<stop offset="1" stop-color="white"/>
</linearGradient>
<linearGradient id="paint5_linear_3755_13208" x1="11" y1="22.7135" x2="21.8441" y2="22.7135" gradientUnits="userSpaceOnUse">
<stop stop-color="#FFDF18"/>
<stop offset="1" stop-color="#FFB10A"/>
</linearGradient>
<clipPath id="clip0_3755_13208">
<rect width="24" height="24" fill="white" transform="translate(0 0.652344)"/>
</clipPath>
</defs>
</svg>
